<svg width="381" height="290" viewBox="0 0 381 290" fill="none" xmlns="http://www.w3.org/2000/svg">
<path fill-rule="evenodd" clip-rule="evenodd" d="M100.163 100.206C100.527 100.377 100.921 100.474 101.323 100.491C101.724 100.508 102.125 100.445 102.503 100.306C102.576 100.288 102.642 100.246 102.689 100.186C102.735 100.126 102.761 100.052 102.761 99.9764C102.761 99.9005 102.735 99.8267 102.689 99.7669C102.642 99.7071 102.576 99.6647 102.503 99.6464C100.948 98.9778 99.6259 97.8645 98.7024 96.4464C98.6785 96.3733 98.6304 96.3105 98.5662 96.2682C98.5019 96.2259 98.4251 96.2067 98.3485 96.2137C98.2719 96.2206 98.1999 96.2534 98.1443 96.3066C98.0887 96.3597 98.0528 96.4302 98.0424 96.5064C97.9456 97.2698 98.1002 98.0438 98.4828 98.7115C98.8653 99.3791 99.455 99.9039 100.163 100.206ZM250.674 51.3864C232.672 53.7264 220.831 55.3864 220.831 55.3864C220.511 55.3864 220.631 55.7064 220.631 56.0264V144.906C220.631 145.066 221.131 145.206 221.312 145.226C236.133 146.906 257.974 148.586 280.356 150.086C295.557 151.086 369.062 155.046 369.062 155.046C369.27 155.047 369.47 154.968 369.622 154.826C369.704 154.757 369.769 154.671 369.814 154.575C369.859 154.478 369.882 154.373 369.883 154.266C370.003 146.766 371.443 39.8464 371.443 39.8464C371.442 39.7341 371.418 39.6232 371.373 39.5201C371.329 39.417 371.264 39.324 371.183 39.2464C371.1 39.1673 371.003 39.1053 370.897 39.0641C370.79 39.0229 370.677 39.0033 370.563 39.0064C346.941 40.4864 319.999 43.1264 295.537 45.8864C278.816 47.8264 263.235 49.7464 250.674 51.3864ZM369.783 40.7864L368.302 153.486C364.422 153.326 295.637 149.926 280.416 149.026C258.194 147.706 236.413 146.206 221.632 144.666V56.6664C224.912 56.2064 294.717 47.5664 310.698 45.9064C330.52 43.8264 351.141 41.9464 369.783 40.7864Z" fill="black"/>
<path fill-rule="evenodd" clip-rule="evenodd" d="M253.174 98.2463C253.131 108.356 257.094 118.07 264.195 125.266C267.709 128.842 271.901 131.682 276.525 133.62C281.149 135.559 286.113 136.558 291.127 136.558C296.141 136.558 301.104 135.559 305.728 133.62C310.352 131.682 314.544 128.842 318.059 125.266C323.412 119.85 327.025 112.958 328.432 105.474C329.84 97.9907 328.979 90.257 325.959 83.2662C328.678 83.2757 331.342 82.5081 333.639 81.054C335.935 79.5998 337.768 77.5195 338.922 75.0583C340.076 72.5971 340.502 69.8575 340.15 67.1622C339.799 64.4669 338.684 61.9282 336.938 59.8452C335.191 57.7622 332.886 56.2216 330.293 55.405C327.7 54.5885 324.928 54.5299 322.303 55.2362C319.678 55.9424 317.31 57.3842 315.477 59.3915C313.644 61.3989 312.423 63.8882 311.958 66.5663C306.236 62.8341 299.613 60.7134 292.788 60.4274C285.962 60.1413 279.185 61.7005 273.17 64.9409C267.156 68.1812 262.126 72.9829 258.611 78.8405C255.095 84.698 253.224 91.3949 253.194 98.2263L253.174 98.2463ZM322.219 65.9863L324.599 71.3863L329.48 59.0663L332.2 60.7663L326.559 76.0063L322.559 76.3863L319.199 69.0463L322.219 65.9863ZM291.117 61.1063C298.522 61.1269 305.74 63.4394 311.778 67.7263V69.0463C311.778 72.5631 313.08 75.9555 315.432 78.5699C317.785 81.1843 321.022 82.8358 324.519 83.2063C327.5 90.0001 328.373 97.5321 327.025 104.827C325.677 112.123 322.17 118.846 316.959 124.126C313.589 127.537 309.576 130.246 305.152 132.094C300.728 133.943 295.981 134.894 291.187 134.894C286.392 134.894 281.645 133.943 277.221 132.094C272.797 130.246 268.784 127.537 265.415 124.126C258.6 117.219 254.764 107.916 254.73 98.213C254.697 88.5101 258.468 79.1806 265.235 72.2263C268.587 68.7383 272.605 65.9573 277.05 64.0474C281.496 62.1375 286.279 61.1374 291.117 61.1063Z" fill="black"/>
<path fill-rule="evenodd" clip-rule="evenodd" d="M269.715 83.6664L276.416 83.8464C276.536 84.7864 280.416 110.506 280.416 110.506C280.444 110.699 280.54 110.875 280.687 111.004C280.834 111.132 281.021 111.204 281.216 111.206L304.458 110.706C304.531 110.688 304.597 110.646 304.644 110.586C304.69 110.526 304.716 110.452 304.716 110.376C304.716 110.3 304.69 110.227 304.644 110.167C304.597 110.107 304.531 110.065 304.458 110.046C304.458 110.046 292.837 109.666 290.457 109.626H281.856C281.736 108.806 281.496 107.306 281.196 105.406C283.196 105.406 302.478 104.926 302.478 104.926C302.67 104.923 302.855 104.85 302.998 104.722C303.141 104.593 303.234 104.417 303.258 104.226L305.258 90.0664C305.27 89.9517 305.259 89.8357 305.224 89.7256C305.19 89.6155 305.133 89.5136 305.058 89.4264C304.98 89.3381 304.885 89.2674 304.778 89.2191C304.671 89.1708 304.555 89.146 304.438 89.1464C304.438 89.1464 280.436 89.6864 278.616 89.7664C277.396 82.9864 277.476 82.8064 276.836 82.8064L269.635 83.0664C269.545 83.0664 269.458 83.1022 269.395 83.166C269.331 83.2297 269.295 83.3162 269.295 83.4064C269.295 83.4966 269.331 83.583 269.395 83.6468C269.458 83.7106 269.545 83.7464 269.635 83.7464L269.715 83.6664ZM295.577 102.846V103.606C294.937 103.606 289.397 104.006 287.416 104.166C287.421 102.109 287.247 100.054 286.896 98.0264L295.797 97.8264C295.584 99.4907 295.511 101.17 295.577 102.846ZM297.857 91.8464V90.7064H303.598L302.798 96.5064H301.117C300.157 96.5064 298.957 96.4064 297.637 96.3864C297.807 94.8793 297.88 93.3629 297.857 91.8464ZM297.477 97.8464C298.877 97.7464 300.137 97.6264 301.137 97.5264L302.678 97.3664L301.857 103.366L296.477 103.646C296.477 103.466 296.477 103.266 296.617 103.046C297.041 101.305 297.329 99.5328 297.477 97.7464V97.8464ZM296.957 90.8064C296.49 92.6188 296.163 94.4641 295.977 96.3264L286.676 96.5864C286.401 94.5555 285.966 92.5493 285.376 90.5864C289.677 90.6464 292.657 90.6864 296.957 90.7064V90.8064ZM286.616 104.326L281.196 104.726C280.856 102.726 280.476 100.346 280.076 97.9264L282.256 98.0464H285.256C285.532 100.141 285.987 102.209 286.616 104.226V104.326ZM284.616 90.6264C284.631 92.6362 284.798 94.642 285.116 96.6264L282.316 96.8664L280.016 97.0864C279.856 96.0664 279.096 91.6064 278.896 90.4464C279.896 90.5064 282.056 90.5064 284.536 90.5064L284.616 90.6264Z" fill="black"/>
<path fill-rule="evenodd" clip-rule="evenodd" d="M379.803 30.8864C379.72 30.8099 379.622 30.751 379.516 30.7132C379.409 30.6754 379.296 30.6594 379.183 30.6664C352.901 32.3664 322.919 35.3864 295.697 38.5464C277.076 40.7064 212.551 49.4064 212.551 49.4064C212.231 49.4064 212.391 49.7264 212.391 50.0464V151.906C212.391 152.066 212.911 152.206 213.091 152.226C229.352 154.106 253.254 156.006 277.816 157.686C278.336 159.686 280.516 167.686 281.576 173.846C281.949 175.716 282.13 177.62 282.116 179.526C282.132 179.869 282.049 180.21 281.876 180.506C279.876 182.506 268.495 186.006 268.155 186.146C267.986 186.197 267.84 186.304 267.742 186.45C267.643 186.596 267.598 186.771 267.615 186.946L267.935 190.826C267.944 191.006 268.018 191.176 268.143 191.304C268.268 191.433 268.436 191.512 268.615 191.526C315.398 197.766 312.618 197.666 313.038 197.526C317.121 195.807 321.078 193.802 324.879 191.526C326.055 190.803 327.137 189.936 328.099 188.946C328.643 188.415 328.977 187.704 329.039 186.946C328.595 184.098 327.926 181.289 327.039 178.546C325.039 171.806 322.259 163.146 321.379 160.546L377.503 163.526C377.61 163.535 377.718 163.52 377.818 163.482C377.918 163.444 378.009 163.384 378.083 163.306C378.162 163.236 378.224 163.15 378.265 163.053C378.307 162.956 378.326 162.852 378.323 162.746C378.463 154.146 380.063 31.6264 380.063 31.6264C380.08 31.4913 380.065 31.3542 380.02 31.2258C379.975 31.0974 379.901 30.9812 379.803 30.8864ZM290.817 192.886L269.435 190.006L269.215 187.386H269.395C271.055 187.626 283.496 189.226 285.976 189.506C291.357 190.106 310.678 192.046 311.978 192.166C311.687 193.376 311.687 194.637 311.978 195.846L290.817 192.886ZM325.859 178.766C326.664 181.38 327.252 184.056 327.619 186.766C327.548 187.151 327.342 187.498 327.039 187.746C326.139 188.621 325.139 189.386 324.059 190.026C320.63 192.068 317.068 193.879 313.398 195.446C313.562 194.253 313.467 193.039 313.118 191.886C314.158 191.446 317.739 189.886 320.939 188.346C322.761 187.52 324.508 186.537 326.159 185.406C326.19 185.377 326.215 185.341 326.231 185.301C326.248 185.262 326.257 185.219 326.257 185.176C326.257 185.133 326.248 185.091 326.231 185.051C326.215 185.012 326.19 184.976 326.159 184.946C326.096 184.883 326.009 184.847 325.919 184.847C325.829 184.847 325.743 184.883 325.679 184.946C324.439 185.723 323.134 186.392 321.779 186.946C318.119 188.526 313.358 190.306 312.378 190.666C311.498 190.666 273.035 186.866 271.135 186.666C283.136 182.486 283.136 181.326 283.316 179.526C283.295 177.507 283.061 175.496 282.616 173.526C281.456 167.526 279.156 159.926 278.456 157.526L321.359 160.506H320.659C321.359 162.726 324.059 171.806 325.859 178.806V178.766ZM376.763 161.746C372.623 161.566 295.797 157.746 278.856 156.606C254.114 155.066 229.872 153.346 213.391 151.566V50.6264C216.891 50.1264 294.757 40.1864 312.538 38.2664C334.54 35.8864 357.642 33.7064 378.403 32.3864L376.763 161.746Z" fill="black"/>
<path fill-rule="evenodd" clip-rule="evenodd" d="M312.598 180.946C311.518 180.946 296.977 180.226 295.637 180.206C294.297 180.186 287.136 180.206 287.136 180.206C287.092 180.204 287.047 180.21 287.005 180.224C286.962 180.239 286.923 180.262 286.89 180.292C286.856 180.321 286.829 180.357 286.81 180.398C286.79 180.438 286.779 180.482 286.776 180.526C286.776 180.613 286.809 180.697 286.869 180.76C286.928 180.823 287.01 180.861 287.096 180.866C287.956 180.866 298.997 182.246 312.538 182.426H321.039C321.081 182.432 321.125 182.429 321.166 182.416C321.207 182.404 321.245 182.382 321.277 182.354C321.31 182.326 321.335 182.29 321.353 182.251C321.37 182.212 321.379 182.169 321.379 182.126C321.382 182.082 321.375 182.037 321.361 181.995C321.346 181.952 321.323 181.913 321.294 181.88C321.264 181.846 321.228 181.819 321.188 181.8C321.147 181.78 321.104 181.769 321.059 181.766C321.059 181.766 314.558 181.106 312.598 180.946ZM348.521 105.506L350.701 109.506L352.441 108.246L350.341 104.626L353.601 103.046L344.881 95.3464L345.381 107.026L348.521 105.506ZM338.76 117.426C338.74 117.465 338.729 117.508 338.726 117.552C338.723 117.596 338.729 117.64 338.744 117.681C338.759 117.722 338.783 117.76 338.813 117.792C338.843 117.824 338.88 117.849 338.92 117.866C339.616 118.37 340.337 118.837 341.08 119.266C341.92 119.746 343.841 120.606 344.741 120.966C345.281 121.186 348.381 122.326 348.621 121.806C348.641 121.767 348.653 121.724 348.655 121.681C348.658 121.637 348.652 121.593 348.637 121.552C348.622 121.51 348.598 121.473 348.568 121.441C348.538 121.409 348.501 121.384 348.461 121.366L347.601 120.766C345.391 119.355 342.985 118.277 340.46 117.566C339.68 117.346 339.2 117.266 339.2 117.266C339.12 117.232 339.03 117.229 338.948 117.259C338.866 117.288 338.799 117.348 338.76 117.426ZM330.92 134.826C329.766 132.955 328.137 131.423 326.199 130.386C326.169 130.356 326.133 130.332 326.094 130.316C326.054 130.3 326.012 130.291 325.969 130.291C325.927 130.291 325.884 130.3 325.845 130.316C325.805 130.332 325.769 130.356 325.739 130.386C325.709 130.417 325.685 130.452 325.669 130.492C325.652 130.531 325.644 130.574 325.644 130.616C325.644 130.659 325.652 130.701 325.669 130.741C325.685 130.78 325.709 130.816 325.739 130.846C325.873 131.13 326.027 131.404 326.199 131.666C327.35 133.463 328.94 134.936 330.82 135.946C330.848 135.98 330.883 136.007 330.923 136.026C330.962 136.044 331.006 136.054 331.05 136.054C331.093 136.054 331.137 136.044 331.177 136.026C331.216 136.007 331.251 135.98 331.28 135.946C331.337 135.884 331.369 135.802 331.369 135.716C331.369 135.631 331.337 135.549 331.28 135.486L330.92 134.826ZM246.593 109.526C246.544 109.454 246.471 109.402 246.386 109.38C246.301 109.358 246.211 109.367 246.133 109.406C241.967 110.959 238.082 113.182 234.632 115.986C234.56 116.035 234.508 116.109 234.486 116.194C234.464 116.278 234.473 116.368 234.512 116.446C234.558 116.523 234.632 116.578 234.718 116.6C234.804 116.623 234.895 116.61 234.972 116.566C239.129 114.993 243.011 112.772 246.473 109.986C246.546 109.937 246.598 109.864 246.62 109.779C246.642 109.694 246.633 109.605 246.593 109.526ZM256.054 125.986C254.134 127.121 252.343 128.463 250.714 129.986C244.533 135.366 246.133 135.486 246.473 135.166C246.473 135.166 247.033 134.846 247.893 134.266C251.085 132.056 253.982 129.448 256.514 126.506C256.547 126.479 256.574 126.445 256.594 126.407C256.614 126.369 256.626 126.327 256.629 126.285C256.633 126.242 256.628 126.199 256.615 126.158C256.603 126.117 256.582 126.079 256.554 126.046C256.527 126.014 256.493 125.986 256.455 125.967C256.417 125.947 256.375 125.935 256.332 125.931C256.29 125.927 256.247 125.932 256.206 125.945C256.165 125.958 256.127 125.979 256.094 126.006L256.054 125.986ZM287.276 216.986C285.675 215.894 283.914 215.057 282.056 214.506C281.987 214.169 281.851 213.85 281.656 213.566C281.301 213.087 280.852 212.686 280.336 212.386C278.576 211.389 276.628 210.769 274.615 210.566C272.109 210.254 269.564 210.577 267.215 211.506C263.455 213.066 254.234 218.726 243.953 222.406C238.68 224.451 233.087 225.548 227.432 225.646C219.721 225.686 212.034 226.51 204.49 228.106C194.67 230.106 185.889 232.746 182.749 234.686L176.488 225.566H176.668C178.062 225.028 179.401 224.358 180.668 223.566C181.592 223.072 182.402 222.391 183.049 221.566C183.093 221.494 183.116 221.411 183.116 221.326C183.116 221.242 183.093 221.159 183.049 221.086C182.981 220.961 182.865 220.867 182.729 220.826C182.516 220.692 182.288 220.584 182.049 220.506C179.581 220.41 177.111 220.45 174.648 220.626C169.318 207.144 162.502 194.298 154.327 182.326C149.494 175.229 144.146 168.498 138.325 162.186C140.646 157.826 143.266 152.646 147.706 142.706C149.335 141.911 150.738 140.72 151.786 139.242C152.835 137.764 153.495 136.046 153.706 134.246C156.107 135.166 157.707 131.726 158.207 128.966C161.287 130.166 166.847 132.286 169.988 133.286C170.499 133.473 171.029 133.607 171.568 133.686C173.708 133.686 181.569 122.186 182.969 119.686C183.377 119.024 183.637 118.28 183.729 117.506C183.707 117.247 183.625 116.997 183.489 116.775C183.354 116.552 183.169 116.365 182.949 116.226C179.868 113.866 166.267 110.746 161.087 109.966C156.607 109.306 156.747 109.466 154.007 112.946C152.966 114.266 151.826 115.826 150.846 117.186C149.03 117.249 147.225 117.511 145.466 117.966C139.345 119.566 137.465 121.766 136.425 125.506C135.56 128.425 135.161 131.463 135.245 134.506C130.285 139.406 126.604 143.286 122.664 147.546C112.387 138.976 101.127 131.657 89.1217 125.746L90.3218 117.746C97.2023 117.746 106.703 115.746 109.143 109.286C110.277 106.099 111.133 102.821 111.703 99.4864C112.483 95.1064 112.803 91.2864 112.903 89.9664L116.784 88.1464C116.952 88.0679 117.086 87.9322 117.163 87.7637C117.24 87.5951 117.254 87.4046 117.204 87.2264C117.204 87.2264 112.383 69.2264 112.083 67.9864C114.584 67.4264 116.444 66.9064 116.444 66.9064C116.444 34.9064 86.4415 28.2064 86.4415 28.2064C86.4415 28.2064 95.9222 16.2064 97.0423 8.44637C98.1624 0.686367 88.6417 -1.91363 76.1408 1.42637C63.6398 4.76637 71.8004 26.8064 71.8004 26.8064C66.1 25.5464 55.3392 31.9864 55.3392 31.9864C47.3386 -9.71363 25.437 7.78637 23.3369 20.1264C21.2367 32.4664 49.0387 35.2864 49.0387 35.2864C30.4174 43.0864 23.8769 106.006 23.8769 106.006C28.1572 109.306 36.6778 111.326 45.8785 112.546C28.5207 124.785 15.2172 141.932 7.67569 161.786C4.37003 170.348 2.11995 179.28 0.975199 188.386C-1.15082 206.603 0.206721 225.057 4.97549 242.766C8.00188 254.543 12.0164 266.044 16.9764 277.146C17.0109 277.226 17.0755 277.289 17.1562 277.32C17.1961 277.336 17.2388 277.344 17.2817 277.343C17.3246 277.343 17.367 277.333 17.4064 277.316C17.4458 277.299 17.4815 277.275 17.5113 277.244C17.5412 277.213 17.5647 277.177 17.5805 277.137C17.5963 277.097 17.604 277.054 17.6033 277.011C17.6026 276.968 17.5935 276.926 17.5764 276.886C12.7932 265.762 8.93324 254.263 6.03557 242.506C1.47693 224.888 0.269224 206.57 2.47531 188.506C3.64917 179.529 5.89883 170.726 9.17581 162.286C16.7168 142.555 30.0565 125.57 47.4386 113.566C79.901 118.126 124.184 141.566 153.306 183.026C161.566 194.891 168.482 207.636 173.928 221.026C166.619 227.759 158.566 233.637 149.926 238.546C145.593 241.022 141.103 243.214 136.485 245.106C131.887 247.01 127.137 248.522 122.284 249.626C118.684 244.506 101.303 214.506 101.163 214.346C101.144 214.308 101.117 214.273 101.084 214.245C101.052 214.217 101.014 214.196 100.972 214.183C100.931 214.169 100.888 214.165 100.845 214.169C100.802 214.173 100.76 214.186 100.723 214.206C100.681 214.225 100.644 214.253 100.614 214.287C100.584 214.321 100.562 214.361 100.548 214.405C100.535 214.448 100.531 214.494 100.537 214.539C100.543 214.584 100.559 214.628 100.583 214.666C100.583 214.666 101.383 216.426 102.743 219.206C107.343 228.586 114.904 242.066 121.684 250.026C119.684 253.246 116.204 260.426 120.004 260.126C122.384 259.946 125.364 256.906 126.004 256.526C135.087 266.174 145.5 274.478 156.927 281.186C165.047 285.706 173.948 289.006 182.649 289.186H182.769C194.429 287.186 206.77 280.626 218.211 272.486C237.633 258.666 254.594 240.486 261.914 233.106C263.124 231.895 264.414 230.765 265.775 229.726C267.962 230.109 270.175 230.317 272.395 230.346C274.061 230.375 275.727 230.268 277.376 230.026C280.214 229.697 282.945 228.748 285.376 227.246C286.676 226.452 287.821 225.429 288.756 224.226C289.47 223.336 289.851 222.227 289.837 221.086C289.806 220.38 289.6 219.693 289.236 219.086C288.739 218.256 288.071 217.54 287.276 216.986ZM56.0393 113.586C70.3603 114.686 83.6213 114.366 83.6213 114.366C82.9013 109.606 76.4608 86.8464 76.4608 86.8464C71.4404 87.2464 67.0401 83.6464 70.1403 76.6664C73.2405 69.6864 80.4811 74.6664 80.4811 74.6664C86.4995 72.622 91.9248 69.1335 96.2822 64.5064C96.883 66.1835 97.8381 67.7115 99.0825 68.9864C100.363 70.2864 106.683 69.1664 111.323 68.1464C111.643 69.9064 112.183 72.5264 112.783 75.2464C113.223 77.3464 115.244 85.9664 115.484 86.9664L111.723 88.5064C110.803 88.9264 111.723 89.6264 110.003 99.0064C109.459 102.243 108.643 105.427 107.563 108.526C107.042 109.74 106.287 110.839 105.339 111.759C104.392 112.678 103.271 113.402 102.043 113.886C98.1424 115.476 93.9913 116.363 89.7818 116.506C89.6418 116.501 89.5051 116.55 89.4006 116.643C89.2961 116.736 89.232 116.867 89.2217 117.006L87.1216 124.786C77.2254 119.872 66.7958 116.114 56.0393 113.586ZM154.047 132.906C153.046 132.906 154.507 128.066 154.567 127.766L157.147 128.766C156.767 130.146 155.607 132.886 154.047 132.906ZM157.107 111.026C161.967 111.246 179.508 115.646 181.689 117.706C181.269 119.806 174.828 128.286 172.368 130.946C170.768 132.646 174.368 133.526 150.026 125.226C151.266 123.346 153.166 119.986 151.046 119.226C150.745 119.143 150.427 119.143 150.126 119.226C152.263 116.313 154.623 113.572 157.187 111.026H157.107ZM152.966 127.026C152.626 128.166 152.106 131.526 151.086 131.026C150.066 130.526 150.486 127.586 150.946 126.246L152.966 127.026ZM125.224 149.766L123.224 148.066C124.384 147.026 131.225 140.766 131.845 140.066C134.485 137.526 136.665 135.386 136.665 135.386C136.752 135.301 136.818 135.197 136.859 135.083C136.901 134.969 136.917 134.847 136.905 134.726C136.723 131.783 136.993 128.828 137.705 125.966C138.084 124.144 139.115 122.522 140.606 121.406C143.485 119.635 146.699 118.477 150.046 118.006L148.946 119.566C144.946 121.726 139.985 128.866 139.825 129.066C139.798 129.099 139.777 129.137 139.764 129.178C139.751 129.219 139.746 129.262 139.75 129.305C139.754 129.347 139.766 129.389 139.786 129.427C139.806 129.465 139.833 129.499 139.865 129.526C139.898 129.554 139.936 129.575 139.977 129.588C140.018 129.601 140.061 129.605 140.104 129.602C140.146 129.598 140.188 129.586 140.226 129.566C140.264 129.546 140.298 129.519 140.326 129.486C141.086 128.766 149.406 120.266 150.506 120.706C151.606 121.146 144.506 130.346 145.166 130.886C145.826 131.426 149.346 126.386 149.726 125.806L150.386 126.066C149.266 128.246 148.386 131.226 150.546 132.446C150.81 132.592 151.106 132.668 151.406 132.668C151.707 132.668 152.003 132.592 152.266 132.446C152.326 132.882 152.484 133.299 152.726 133.666C152.333 135.976 151.127 138.068 149.326 139.566C145.326 143.106 147.806 137.246 140.646 154.046C140.005 155.526 139.425 156.966 138.925 158.206C138.425 159.446 137.885 160.826 137.605 161.566C133.678 157.428 129.546 153.49 125.224 149.766ZM120.644 258.266C120.404 258.379 120.147 258.453 119.884 258.486C120.503 255.869 121.529 253.365 122.924 251.066C127.747 249.933 132.47 248.408 137.045 246.506C141.703 244.537 146.221 242.252 150.566 239.666C159.225 234.543 167.248 228.414 174.468 221.406C176.919 221.258 179.377 221.258 181.829 221.406C181.263 221.882 180.653 222.304 180.008 222.666C178.793 223.378 177.514 223.974 176.188 224.446C175.814 224.526 175.463 224.69 175.161 224.926C174.86 225.161 174.616 225.462 174.448 225.806C173.988 226.986 174.928 228.026 173.748 229.806C172.148 232.146 169.928 230.866 167.127 231.526C163.787 232.306 165.127 237.526 163.127 239.246C161.127 240.966 157.007 237.926 155.127 240.726C154.087 242.306 154.607 244.886 153.686 246.326C152.766 247.766 147.986 243.766 145.166 246.646C144.238 248.057 143.403 249.527 142.666 251.046C141.286 253.166 139.265 250.566 136.665 250.426C131.865 250.186 135.685 261.546 129.245 256.426C128.628 255.903 127.958 255.447 127.245 255.066C124.924 253.766 124.224 256.766 120.644 258.266ZM260.654 231.846C253.374 239.126 236.493 257.306 217.211 271.146C205.99 279.146 193.949 285.766 182.489 287.786C174.008 287.786 165.307 284.546 157.367 280.226C146.223 273.815 136.018 265.893 127.045 256.686C127.554 257.008 128.041 257.362 128.505 257.746C136.165 263.746 135.265 251.966 136.865 252.046C139.785 252.186 142.206 256.746 145.726 249.186C145.932 248.663 146.223 248.176 146.586 247.746C148.726 245.546 153.266 250.346 155.287 247.146C156.647 244.966 155.707 241.386 157.287 241.146C158.867 240.906 160.307 241.706 161.987 241.446C167.307 240.666 164.847 233.446 167.488 232.826C168.48 232.618 169.494 232.53 170.508 232.566C171.292 232.587 172.072 232.458 172.808 232.186C173.633 231.837 174.331 231.244 174.808 230.486C176.148 228.486 175.288 227.006 175.548 226.266C175.587 226.167 175.658 226.083 175.748 226.026L182.289 235.926C182.314 235.969 182.349 236.005 182.391 236.033C182.432 236.061 182.479 236.079 182.529 236.086C182.625 236.125 182.732 236.125 182.829 236.086C185.609 234.206 194.59 231.306 204.65 229.426C212.123 227.844 219.734 227.013 227.372 226.946C233.19 226.909 238.954 225.832 244.393 223.766C254.714 220.146 263.995 214.546 267.775 213.006C269.878 212.184 272.155 211.902 274.395 212.186C275.955 212.364 277.476 212.797 278.896 213.466C279.421 213.689 279.887 214.031 280.256 214.466C280.327 214.578 280.381 214.699 280.416 214.826H280.016C279.379 214.53 278.707 214.315 278.016 214.186C275.292 213.684 272.499 213.684 269.775 214.186C269.67 214.202 269.569 214.238 269.478 214.293C269.387 214.348 269.308 214.42 269.244 214.506C269.181 214.591 269.136 214.688 269.11 214.791C269.084 214.894 269.079 215.001 269.095 215.106C269.111 215.211 269.147 215.312 269.202 215.403C269.257 215.494 269.329 215.574 269.414 215.637C269.5 215.7 269.597 215.746 269.7 215.771C269.803 215.797 269.91 215.802 270.015 215.786C271.943 215.517 273.892 215.43 275.836 215.526H276.876C277.282 215.592 277.683 215.685 278.076 215.806C279.116 216.036 280.039 216.633 280.676 217.486C277.433 216.987 274.122 217.17 270.955 218.026H270.715C270.526 218.099 270.37 218.238 270.275 218.418C270.18 218.597 270.154 218.804 270.2 219.002C270.246 219.199 270.362 219.373 270.527 219.492C270.691 219.61 270.893 219.665 271.095 219.646H271.375C273.421 219.202 275.503 218.948 277.596 218.886H279.056C279.68 218.941 280.297 219.061 280.896 219.246C281.107 219.322 281.309 219.423 281.496 219.546C281.594 219.607 281.702 219.648 281.816 219.666C282.02 219.774 282.199 219.925 282.341 220.108C282.482 220.29 282.583 220.501 282.636 220.726L282.376 220.846C282.019 220.984 281.651 221.091 281.276 221.166C277.838 221.777 274.482 222.784 271.275 224.166C267.316 226.061 263.737 228.664 260.714 231.846H260.654ZM287.416 223.046C286.571 224.146 285.526 225.075 284.336 225.786C282.109 227.149 279.623 228.034 277.036 228.386C275.455 228.662 273.858 228.836 272.255 228.906C270.383 229.006 268.507 229.006 266.635 228.906C267.715 228.146 268.755 227.506 269.775 226.906C273.875 224.862 278.246 223.414 282.756 222.606C283.976 222.206 284.416 221.546 284.336 220.766C284.271 220.273 284.093 219.801 283.816 219.388C283.538 218.975 283.168 218.632 282.736 218.386C282.576 217.427 282.113 216.544 281.416 215.866L281.656 215.626C281.766 215.48 281.854 215.318 281.916 215.146C282.956 215.617 283.959 216.165 284.916 216.786C286.087 217.5 287.074 218.48 287.796 219.646C288.095 220.178 288.225 220.789 288.167 221.396C288.11 222.004 287.869 222.579 287.476 223.046H287.416Z" fill="black"/>
<path fill-rule="evenodd" clip-rule="evenodd" d="M153.026 121.986C158.842 124.503 164.865 126.511 171.028 127.986C176.708 129.326 172.608 126.906 161.027 123.286C156.847 121.986 153.687 121.286 153.386 121.286C153.342 121.264 153.294 121.252 153.245 121.25C153.195 121.248 153.146 121.257 153.1 121.276C153.055 121.295 153.014 121.324 152.981 121.361C152.948 121.398 152.923 121.441 152.908 121.488C152.893 121.535 152.889 121.585 152.895 121.634C152.902 121.683 152.919 121.73 152.945 121.772C152.972 121.814 153.007 121.849 153.049 121.876C153.091 121.902 153.137 121.92 153.186 121.926L153.026 121.986ZM161.867 114.166L157.687 113.166L155.907 115.066L160.527 116.286L161.867 114.166ZM284.056 114.506C283.016 114.506 282.176 115.666 282.176 117.106C282.176 118.546 283.016 119.686 284.056 119.686C285.096 119.686 285.916 118.526 285.916 117.106C285.916 115.686 285.156 114.506 284.056 114.506ZM302.217 114.506C301.177 114.506 300.337 115.666 300.337 117.106C300.337 118.546 301.177 119.686 302.217 119.686C303.258 119.686 304.078 118.526 304.078 117.106C304.078 115.686 303.238 114.506 302.217 114.506ZM104.803 82.0864C104.98 82.0894 105.157 82.0559 105.321 81.988C105.485 81.9202 105.634 81.8195 105.757 81.692C105.881 81.5646 105.977 81.4132 106.04 81.2471C106.103 81.081 106.131 80.9038 106.123 80.7264C106.123 79.8064 106.123 78.9064 106.223 77.9864C106.259 77.6203 106.155 77.2542 105.933 76.9613C105.71 76.6683 105.385 76.4702 105.023 76.4064C103.263 76.1664 103.483 78.6264 103.483 80.6064C103.476 80.974 103.608 81.3306 103.853 81.6049C104.098 81.8793 104.437 82.0512 104.803 82.0864Z" fill="black"/>
</svg>
