<svg width="313" height="313" viewBox="0 0 313 313" fill="none" xmlns="http://www.w3.org/2000/svg">
<rect width="313" height="313" fill="white"/>
<path fill-rule="evenodd" clip-rule="evenodd" d="M156.612 58.6915C230.307 71.0713 281.7 113.134 281.7 180.292C281.7 260.789 217.854 177.151 173.829 224.083C129.805 271.015 36.0098 272.345 31.5231 180.292C27.323 94.1194 82.9158 46.3118 156.612 58.6915Z" fill="#57C3FF"/>
<path fill-rule="evenodd" clip-rule="evenodd" d="M118.941 188.824L138.435 163.607L138.883 163.961C141.762 166.225 144.045 167.716 145.732 168.436L146.232 168.648C154.337 172.057 159.91 173.215 159.015 174.016L157.905 175.013C150.742 181.48 140.933 190.884 128.479 203.225C126.774 205.063 124.476 206.242 121.993 206.556L119.425 206.863C94.2164 209.847 78.0438 210.105 72.1175 208.792C70.8798 208.518 67.0702 209.234 64.194 212.123C59.8796 216.457 53.7099 226.896 52.6738 226.896C51.1675 226.896 52.5869 219.981 56.9319 206.153L57.3911 204.546C59.4153 197.528 60.8716 193.378 61.7598 192.097C62.7138 190.722 65.9364 193.15 71.4275 199.384L71.2786 200.194C71.9912 199.368 72.8361 198.488 73.8131 197.556L76.4075 197.245C85.5731 196.132 92.54 195.115 97.3081 194.192L97.8102 194.094C102.976 193.07 110.02 191.314 118.941 188.824Z" fill="white"/>
<path fill-rule="evenodd" clip-rule="evenodd" d="M240.338 162.699L247.586 168.161C248.977 169.208 249.997 170.676 250.494 172.345L251.867 176.944C252.513 178.335 251.948 179.987 250.586 180.691L248.026 182.591C246.38 183.44 244.373 182.52 243.94 180.717L242.499 175.592C242.499 175.592 236.391 173.736 235.579 166.466L240.338 162.699" fill="white"/>
<path fill-rule="evenodd" clip-rule="evenodd" d="M205.401 72.9886C210.354 73.1901 212.843 79.9775 214.462 83.3327C215.013 84.4756 211.134 118.255 209.866 126.899C207.609 142.292 200.787 147.173 196.503 148.221C196.503 148.221 196.76 165.722 194.966 170.078C190.994 179.723 140.712 173.249 135.798 157.129C132.439 146.109 144.923 144.824 149.608 138.18C158.195 126.003 158.641 114.67 167.891 106.562C171.396 102.72 175.466 98.8644 178.976 94.2277L180.404 92.3487C189.332 80.6516 196.131 72.8908 204.936 72.9768L205.401 72.9886Z" fill="white"/>
<path fill-rule="evenodd" clip-rule="evenodd" d="M180.567 102.268C179.747 102.664 178.547 102.787 178.119 101.983C176.776 99.4601 172.666 99.1132 170.92 101.375C172.596 100.799 174.549 100.249 176.048 101.196C176.465 101.459 176.826 101.828 177.182 102.194C177.776 102.802 178.36 103.4 179.178 103.48C179.786 103.54 180.365 103.284 180.941 103.029C181.559 102.756 182.175 102.484 182.819 102.605C183.535 102.739 184.036 103.309 184.538 103.878C185.039 104.446 185.539 105.014 186.252 105.151C186.835 105.264 187.422 105.055 188.002 104.847C188.652 104.616 189.294 104.386 189.919 104.611C190.665 104.88 191.006 105.649 191.347 106.418C191.686 107.183 192.026 107.949 192.765 108.225C193.202 108.388 193.675 108.329 194.142 108.238L194.605 108.143C195.696 107.926 196.874 107.907 197.872 108.398C198.73 108.82 199.405 109.693 199.461 110.626C199.483 110.424 199.503 110.224 199.52 110.023L199.693 108.888C198.703 107.727 197.148 107.069 195.625 107.171C195.364 107.188 195.103 107.226 194.842 107.264C194.34 107.337 193.84 107.411 193.342 107.335C192.585 107.22 191.817 106.576 191.944 105.822L191.956 105.74C192.094 104.477 190.402 103.753 189.101 103.859C188.824 103.882 188.541 103.919 188.257 103.956C187.172 104.096 186.063 104.24 185.211 103.617C184.882 103.376 184.627 103.039 184.376 102.705C184.023 102.237 183.676 101.776 183.135 101.595C182.537 101.394 181.929 101.604 181.34 101.884L181.144 101.979L180.567 102.268ZM171.133 111.052C171.697 111.81 172.859 111.385 173.757 111.058L173.803 111.041C176.209 110.163 179.108 110.848 180.867 112.709C181.831 113.73 183.257 113.445 184.734 113.15C185.968 112.903 187.236 112.649 188.3 113.144C188.798 113.375 189.259 113.767 189.712 114.15C190.541 114.853 191.338 115.529 192.268 115.146C194.03 114.42 196.192 114.808 197.608 116.078L197.603 116.479L197.597 117.362C196.19 115.953 193.913 115.497 192.072 116.255C191.143 116.638 190.345 115.962 189.516 115.259C189.064 114.875 188.602 114.484 188.105 114.253C187.041 113.758 185.772 114.011 184.538 114.258C183.062 114.554 181.635 114.839 180.671 113.818C178.948 111.994 176.129 111.299 173.753 112.098L173.279 112.268C172.432 112.568 171.444 112.841 170.937 112.161C169.338 110.015 166.128 109.263 163.742 110.475L164.051 109.311L164.192 109.246C166.547 108.208 169.59 108.981 171.133 111.052ZM165.654 120.621C164.77 120.983 163.625 121.452 163.032 120.716C161.951 119.376 159.482 119.279 155.625 120.423C155.92 120.623 156.681 120.604 157.619 120.579C159.386 120.533 161.782 120.471 162.879 121.832C163.412 122.492 164.389 122.182 165.223 121.85L165.691 121.661C168.035 120.772 170.878 121.357 172.67 123.114C173.672 124.097 175.087 123.757 176.551 123.406C177.774 123.112 179.033 122.809 180.115 123.263C180.621 123.475 181.097 123.849 181.564 124.214C182.419 124.885 183.242 125.53 184.156 125.112L184.283 125.056C185.319 124.619 187.308 125.355 189.111 126.023C190.423 126.509 191.636 126.958 192.312 126.892C188.132 124.433 185.464 123.468 184.309 123.996L184.217 124.035C183.34 124.371 182.543 123.747 181.716 123.099L181.716 123.099C181.25 122.733 180.773 122.36 180.267 122.148C179.185 121.694 177.927 121.996 176.704 122.29C175.239 122.642 173.825 122.982 172.823 121.999C170.994 120.206 168.071 119.633 165.7 120.602L165.654 120.621ZM173.849 161.223C174.909 161.904 176.283 162.785 177.264 162.301C178.996 161.447 182.118 162.205 186.63 164.576L187.064 164.806C186.622 164.888 185.629 164.583 184.405 164.206L184.405 164.206C182.099 163.497 178.972 162.536 177.157 163.431C176.276 163.865 175.079 163.199 174.076 162.566L173.515 162.209C170.867 160.584 167.29 160.036 164.518 160.802C163.629 161.172 162.392 160.739 161.032 160.263C160.107 159.94 159.125 159.596 158.158 159.472C156.966 159.319 156.352 159.411 155.813 159.491C155.272 159.572 154.807 159.642 153.909 159.441C153.215 159.286 152.105 158.801 150.581 157.986C147.879 156.688 143.091 156.846 140.571 157.747L140.435 157.794C137.741 158.685 137.763 157.709 140.472 156.693L140.678 156.618L140.84 156.562C143.719 155.603 149.051 155.708 151.842 157.498L151.897 157.533C152.957 158.214 154.33 159.095 155.312 158.611L155.384 158.579C156.07 158.297 157.675 158.302 158.173 158.335L158.265 158.342C159.94 158.528 160.305 158.68 160.703 158.97L160.988 159.186L161.151 159.249C161.756 159.485 162.399 159.764 163.078 160.086C163.359 160.061 163.682 159.987 164.063 159.85L164.225 159.794C167.104 158.836 171.003 159.398 173.794 161.188L173.849 161.223ZM161.374 129.063C162.002 129.799 163.213 129.33 164.149 128.968L164.197 128.949C166.705 127.98 169.798 128.553 171.732 130.346C172.793 131.329 174.289 130.989 175.838 130.637C177.132 130.343 178.464 130.041 179.608 130.494C180.143 130.706 180.647 131.08 181.141 131.446C182.016 132.094 182.858 132.718 183.786 132.382L183.884 132.343C185.106 131.814 187.928 132.78 192.35 135.239C191.635 135.305 190.352 134.855 188.964 134.37C187.057 133.702 184.952 132.966 183.856 133.403L183.722 133.458C182.755 133.877 181.884 133.231 180.979 132.561C180.486 132.195 179.982 131.822 179.447 131.61C178.302 131.156 176.971 131.458 175.676 131.752C174.127 132.104 172.631 132.444 171.57 131.461C169.675 129.704 166.667 129.118 164.187 130.008L163.692 130.196C162.81 130.528 161.776 130.839 161.213 130.178C160.052 128.818 157.517 128.88 155.648 128.926C154.655 128.95 153.85 128.97 153.538 128.77C157.619 127.625 160.231 127.723 161.374 129.063ZM160.738 138.149C159.662 138.511 158.268 138.98 157.546 138.244C156.231 136.904 153.226 136.807 148.53 137.951C148.889 138.151 149.815 138.132 150.957 138.107C153.108 138.061 156.025 137.999 157.36 139.36C158.008 140.02 159.198 139.71 160.213 139.378L160.782 139.189C163.635 138.3 167.096 138.885 169.277 140.642C170.497 141.625 172.219 141.285 174.001 140.934C175.49 140.64 177.022 140.337 178.339 140.791C178.954 141.003 179.534 141.376 180.102 141.742C181.144 142.413 182.145 143.058 183.258 142.64L183.412 142.584C184.673 142.147 187.094 142.883 189.289 143.551L189.289 143.551C190.886 144.037 192.362 144.486 193.185 144.42C188.097 141.961 184.85 140.996 183.444 141.524L183.332 141.563C182.264 141.899 181.294 141.275 180.288 140.627C179.72 140.261 179.14 139.888 178.525 139.676C177.208 139.222 175.676 139.524 174.187 139.818C172.405 140.17 170.683 140.51 169.463 139.527C167.237 137.734 163.679 137.161 160.794 138.13L160.738 138.149ZM152.382 145.339C153.191 146.075 154.754 145.606 155.961 145.244L156.024 145.225C159.26 144.256 163.25 144.829 165.746 146.622C167.115 147.605 169.045 147.265 171.044 146.913C172.714 146.619 174.432 146.317 175.909 146.77C176.599 146.982 177.25 147.356 177.887 147.722C179.015 148.37 180.103 148.994 181.3 148.658L181.426 148.619C183.003 148.09 186.644 149.056 192.35 151.515C191.428 151.581 189.772 151.131 187.981 150.646L187.981 150.646C185.52 149.978 182.804 149.242 181.39 149.679L181.217 149.734C179.97 150.153 178.846 149.507 177.678 148.837C177.041 148.471 176.391 148.098 175.7 147.886C174.223 147.432 172.506 147.734 170.836 148.028C168.837 148.38 166.906 148.72 165.537 147.737C163.091 145.98 159.21 145.394 156.01 146.284L155.372 146.472C154.234 146.804 152.9 147.115 152.173 146.454C150.675 145.094 147.404 145.156 144.992 145.202C143.711 145.226 142.673 145.246 142.27 145.046C147.536 143.901 150.906 143.999 152.382 145.339ZM152.205 151.504C150.998 151.866 149.435 152.335 148.626 151.599C147.15 150.259 143.78 150.161 138.514 151.306C138.917 151.506 139.955 151.486 141.236 151.462C143.648 151.416 146.919 151.354 148.417 152.714C149.144 153.375 150.478 153.064 151.616 152.732L152.254 152.544C155.248 151.712 158.837 152.171 161.291 153.671C162.043 154.272 163.352 154.197 164.79 154.114C165.769 154.058 166.807 153.998 167.771 154.146C168.959 154.327 169.524 154.585 170.02 154.811C170.518 155.038 170.946 155.233 171.864 155.287C172.929 155.35 175.464 154.805 175.464 154.805C178.419 154.303 182.978 155.774 185.152 157.336L185.27 157.418C187.672 159.056 187.873 158.024 185.361 156.22L185.22 156.122C182.717 154.407 177.562 153.038 174.387 153.989L174.324 154.008C173.117 154.37 171.554 154.839 170.744 154.103C170.18 153.59 168.335 153.091 167.98 153.03C166.1 152.71 165.845 152.81 165.274 153.034L165.274 153.035C165.243 153.047 165.212 153.059 165.18 153.071C165.163 153.078 165.146 153.084 165.129 153.091L164.955 153.106C164.308 153.166 163.614 153.257 162.872 153.38C162.609 153.278 162.319 153.118 161.99 152.882L161.85 152.783C159.346 151.068 155.444 150.534 152.268 151.485L152.205 151.504Z" fill="#FFB61D"/>
<path fill-rule="evenodd" clip-rule="evenodd" d="M203.803 78.07C210.844 78.0942 216.401 84.0676 215.926 91.0997C215.926 91.0997 207.715 126.819 211.877 139.515C213.487 144.427 236.731 159.711 235.749 161.281L232.469 169.14C231.303 171 195.626 147.135 195.626 147.135C192.204 144.418 191.567 90.3974 191.567 90.3974C191.5 83.5939 197.005 78.0461 203.803 78.07Z" fill="white"/>
<path d="M240.759 162.699L236.566 171.332L236.482 171.563C236.134 172.458 234.8 173.005 234.629 173.049L234.604 173.049L232.128 171.584C231.844 171.346 231.689 170.009 231.989 168.766L232.059 168.504C232.059 168.504 234.022 161.609 235.648 159.868C236.596 158.852 242.072 159.868 240.759 162.699Z" fill="white"/>
<path fill-rule="evenodd" clip-rule="evenodd" d="M181.03 242.317H171.021C171.021 242.317 182.768 211.818 182.768 203.814C182.768 201.332 173.534 205.072 174.874 201.332C176.716 196.189 183.089 186.993 181.519 182.376C179.878 177.548 173.754 175.799 168.421 173.842C167.399 173.467 186.04 174.762 191.153 170.695C197.898 165.329 192.422 153.481 194.233 157.658C196.419 162.699 210.62 175.344 207.805 189.037C205.062 202.377 181.03 242.317 181.03 242.317Z" fill="white"/>
<path fill-rule="evenodd" clip-rule="evenodd" d="M177.56 248.198L176.622 247.886C176.538 247.859 176.528 247.745 176.605 247.703L177.505 247.215V246.081C177.505 245.995 177.606 245.949 177.671 246.005L178.416 246.66L179.641 246.014C179.729 245.968 179.823 246.064 179.775 246.151L179.078 247.424L180.428 248.835C180.499 248.909 180.426 249.029 180.328 249.001L178.469 248.464L177.747 249.736C177.697 249.826 177.56 249.79 177.56 249.687V249.132V248.198Z" fill="#FFB61D"/>
<path fill-rule="evenodd" clip-rule="evenodd" d="M152.185 180.887C151.75 181.339 151.32 181.796 150.89 182.253L150.89 182.253C150.077 183.117 149.263 183.982 148.415 184.811C146.828 186.363 145.226 187.906 143.542 189.349C141.453 191.139 139.312 192.875 137.123 194.541C134.645 196.426 132.108 198.235 129.56 200.023C129.426 200.117 129.292 200.212 129.159 200.307L129.155 200.31C127.855 201.232 126.556 202.153 124.886 202.438C124.409 202.519 123.963 202.758 123.514 202.999C123.157 203.19 122.797 203.383 122.42 203.498C119.815 204.287 117.197 205.039 114.562 205.721C112.945 206.14 111.294 206.439 109.646 206.726C108.62 206.905 102.747 207.838 98.8397 208.405C94.9323 208.972 82.0097 208.972 78.7835 208.905C76.973 208.867 75.163 208.805 73.3534 208.736L73.2601 208.732C72.8913 208.719 72.4994 208.705 72.179 208.56C70.4018 207.755 69.0267 208.632 67.6331 209.52L67.5328 209.584C65.7032 210.75 64.5835 212.503 63.4771 214.299C62.8892 215.253 62.2664 216.185 61.6436 217.118C60.9733 218.121 60.3031 219.125 59.6765 220.155C58.8471 221.519 58.1073 222.939 57.3683 224.357C57.2355 224.612 57.1026 224.867 56.9693 225.121C55.9924 226.986 54.5269 228.071 52.4242 228.472C51.3792 228.672 50.4839 228.362 49.5909 228.052C49.2599 227.937 48.9292 227.823 48.5913 227.734C47.9301 227.561 47.397 225.774 47.6328 225.067C48.3209 223.004 49.0105 220.941 49.7 218.878L49.7001 218.878L49.7006 218.876L49.7014 218.874C51.1429 214.562 52.5843 210.25 54.0131 205.933C55.011 202.919 55.9854 199.896 56.9597 196.874C57.235 196.02 57.5102 195.167 57.786 194.313C57.9172 193.907 58.0419 193.498 58.1666 193.089L58.1667 193.089L58.1668 193.089C58.3735 192.412 58.5802 191.734 58.8168 191.067C58.8944 190.849 59.2152 190.579 59.4333 190.571C61.0098 190.508 62.5235 190.894 63.9615 191.484C66.6803 192.6 68.7724 194.482 70.3082 196.987C70.7153 197.651 71.4261 197.89 72.3225 197.732C72.7549 197.655 73.1913 197.598 73.6276 197.54H73.6277C74.2939 197.452 74.9597 197.364 75.6103 197.21C77.0572 196.866 78.5218 196.855 79.986 196.843C80.9288 196.836 81.8713 196.828 82.8088 196.732C83.453 196.666 84.1006 196.628 84.748 196.591L84.7487 196.591C85.6135 196.54 86.4779 196.49 87.3335 196.372C88.8889 196.158 90.4367 195.889 91.9845 195.619L91.9851 195.619L91.9858 195.619L91.9864 195.619L91.9871 195.619L91.9877 195.619L91.9884 195.618L91.989 195.618C92.7232 195.49 93.4574 195.363 94.1925 195.241C94.7859 195.142 95.3804 195.049 95.9749 194.956L95.9757 194.956L95.9764 194.956L95.9772 194.956L95.9779 194.956L95.9787 194.955L95.9794 194.955L95.9802 194.955L95.9809 194.955C97.1299 194.775 98.2788 194.595 99.4203 194.376C100.881 194.096 102.33 193.754 103.779 193.412L104.301 193.289C105.834 192.928 107.363 192.556 108.892 192.184C109.534 192.028 110.175 191.872 110.816 191.717C110.885 191.7 110.954 191.682 111.022 191.665L111.118 191.64C111.083 191.622 111.048 191.603 111.013 191.585C110.937 191.546 110.861 191.507 110.789 191.462C110.566 191.325 110.337 191.195 110.108 191.066C109.585 190.769 109.062 190.473 108.616 190.087C107.615 189.218 107.958 187.776 109.23 187.391C110.2 187.098 111.2 186.804 112.201 186.737C113.55 186.646 114.779 186.198 116.01 185.75L116.01 185.75L116.01 185.75L116.011 185.75L116.011 185.749L116.011 185.749L116.011 185.749L116.011 185.749C116.505 185.569 116.999 185.389 117.501 185.232C118.688 184.861 119.399 184.163 119.995 183.095C120.282 182.58 120.702 182.144 121.124 181.706C121.421 181.397 121.72 181.088 121.973 180.749C123.284 178.996 124.559 177.215 125.801 175.412C126.065 175.028 126.277 174.609 126.489 174.19L126.489 174.19C126.651 173.869 126.813 173.548 126.999 173.243C127.435 172.527 127.878 171.802 128.416 171.164L128.487 171.08C129.721 169.616 130.959 168.148 132.302 166.787C133.034 166.045 133.842 165.378 134.65 164.711C135.031 164.396 135.413 164.081 135.787 163.758C135.975 163.594 136.157 163.418 136.315 163.226C136.588 162.896 136.7 162.622 136.289 162.232C136.182 162.131 136.074 162.03 135.966 161.928C134.893 160.919 133.81 159.901 133.224 158.505C133.163 158.36 133.101 158.215 133.04 158.069L133.038 158.066C132.567 156.954 132.092 155.833 131.824 154.669C131.463 153.103 131.609 151.508 132.076 149.93C132.729 147.721 134.097 146.047 135.95 144.846C137.093 144.105 138.296 143.457 139.499 142.809C140.39 142.328 141.282 141.848 142.15 141.329C142.821 140.929 143.394 140.345 143.954 139.776L143.954 139.776C144.008 139.722 144.061 139.668 144.115 139.614C146.635 137.064 148.391 133.978 150.141 130.904L150.141 130.904L150.142 130.902L150.143 130.9L150.144 130.898C150.329 130.574 150.514 130.249 150.699 129.925C152.391 126.974 153.908 123.92 155.421 120.871C155.857 119.992 156.23 119.083 156.604 118.174L156.604 118.174L156.604 118.174L156.604 118.174L156.604 118.174L156.604 118.174L156.604 118.173L156.604 118.173C156.934 117.37 157.264 116.567 157.637 115.784C157.932 115.165 158.296 114.58 158.66 113.995L158.66 113.994C158.927 113.564 159.195 113.133 159.436 112.689C159.694 112.212 159.93 111.722 160.166 111.231L160.166 111.231C160.523 110.489 160.88 109.747 161.314 109.053C161.625 108.557 162.075 108.148 162.524 107.74C162.712 107.569 162.9 107.398 163.078 107.221C163.299 107 163.524 106.783 163.75 106.566C163.985 106.34 164.22 106.114 164.45 105.883C164.857 105.477 165.258 105.065 165.647 104.642C166.396 103.829 167.149 103.021 167.901 102.212C169.758 100.216 171.614 98.2211 173.409 96.172C175.512 93.7713 177.513 91.2769 179.478 88.7606C180.259 87.7601 180.964 86.6992 181.668 85.6384C181.982 85.1659 182.295 84.6935 182.616 84.2264C182.634 84.2 182.649 84.171 182.664 84.1422C182.685 84.101 182.706 84.06 182.736 84.0269C183.244 83.4671 183.747 82.9021 184.25 82.337L184.252 82.335L184.252 82.3349L184.252 82.3348L184.252 82.3347L184.252 82.3346L184.252 82.3345L184.252 82.3344L184.252 82.3343C185.434 81.0061 186.617 79.6779 187.867 78.418C189.723 76.5482 191.849 74.9979 194.157 73.7066C194.509 73.5098 194.848 73.2862 195.187 73.063C195.721 72.7112 196.254 72.3602 196.833 72.1153C196.969 72.0575 197.107 71.9983 197.246 71.9388C198.352 71.4635 199.512 70.9653 200.653 70.9419C203.063 70.8925 205.568 70.9198 207.59 72.6229C207.974 72.9456 208.076 72.8696 208.112 72.438C208.146 72.0263 208.216 71.6024 208.286 71.1783L208.286 71.1779L208.286 71.1775L208.286 71.1771L208.286 71.1768C208.449 70.1877 208.612 69.1977 208.328 68.3606C208.156 67.8545 208.096 67.3438 208.037 66.8374C207.97 66.2647 207.903 65.6976 207.676 65.1493C206.917 63.3163 206.24 61.4489 205.564 59.5825C205.462 59.3016 205.36 59.0208 205.258 58.74C205.046 58.1576 204.874 57.5457 204.795 56.933C204.739 56.495 204.72 56.0522 204.701 55.6094V55.609C204.682 55.1547 204.663 54.7005 204.603 54.2515C204.391 52.6541 204.944 51.2506 205.5 49.8414L205.5 49.841L205.501 49.8406L205.501 49.8402L205.501 49.8399L205.501 49.8391L205.501 49.8384L205.502 49.8378C205.603 49.5817 205.704 49.3255 205.8 49.0678C206.982 45.9149 209.195 43.5304 211.585 41.2911C213.643 39.3631 217.051 38.7566 219.808 38.2811C220.826 38.1055 227.973 37.9375 231.747 37.8488L231.747 37.8488C232.978 37.8199 233.851 37.7994 234.034 37.7898C234.778 37.7509 235.282 37.4046 235.786 37.0329C236.827 36.2655 237.094 35.0755 237.357 33.9044C237.383 33.789 237.409 33.6737 237.435 33.5591C237.442 33.5312 237.448 33.5039 237.454 33.4773C237.521 33.1703 237.569 32.955 238.031 32.9705C239.572 33.0223 240.365 34.0287 241.119 35.1788C241.969 36.4738 242.658 37.8242 242.894 39.3678C243.182 41.2473 243.027 42.9932 241.69 44.541C240.603 45.7999 239.338 46.762 237.909 47.5694C237.719 47.6765 237.599 48.2441 237.704 48.4865C238.781 50.971 238.861 53.5901 238.756 56.2197C238.731 56.8578 238.627 57.4926 238.524 58.1275L238.524 58.1279V58.128V58.1281V58.1282V58.1283V58.1285V58.1286V58.1287C238.426 58.7301 238.328 59.3316 238.296 59.9363C238.205 61.6714 238.559 63.3402 239.255 64.9539C239.727 66.0486 239.396 67.0853 238.604 67.9457C238.469 68.093 238.299 68.2164 238.132 68.3387C237.896 68.5108 237.663 68.6808 237.53 68.9126C237.229 69.4371 237.02 70.0682 236.971 70.6697C236.934 71.1299 236.983 71.5962 237.032 72.0635L237.033 72.0638V72.0639V72.0641V72.0642V72.0643V72.0644V72.0646V72.0647C237.063 72.3548 237.094 72.6454 237.104 72.9351C237.143 74.0518 236.718 75.0068 236.146 75.96C235.109 77.6849 233.741 78.9539 231.756 79.3694C230.054 79.7254 228.288 79.7465 226.645 79.1866C224.78 78.551 222.962 77.7375 221.207 76.8375C220.709 76.582 220.314 76.1228 219.92 75.6639C219.744 75.4587 219.567 75.2535 219.382 75.0665C219.107 74.7898 218.968 74.7094 218.603 75.0962C217.299 76.4778 216.35 78.0472 215.584 79.78C215.161 80.7363 215.435 81.5223 215.728 82.3597L215.762 82.4582L215.845 82.697C216.25 83.8562 216.653 85.0098 216.622 86.2782C216.606 86.9068 216.618 87.5373 216.631 88.1674C216.65 89.1632 216.669 90.1581 216.579 91.1438C216.482 92.1979 216.246 93.2396 216.009 94.2808L216.009 94.281C215.914 94.7001 215.818 95.1191 215.732 95.5389C215.641 95.9844 215.551 96.4305 215.462 96.8766L215.462 96.8774L215.462 96.8782C215.191 98.227 214.921 99.5759 214.597 100.912C214.448 101.531 214.242 102.135 214.036 102.74C213.868 103.235 213.699 103.731 213.562 104.234C213.402 104.816 213.241 105.397 213.079 105.979L213.079 105.98L213.078 105.982L213.078 105.983C212.449 108.249 211.819 110.516 211.31 112.809C210.874 114.772 210.622 116.792 210.475 118.801C210.384 120.056 210.398 121.32 210.411 122.584C210.419 123.282 210.427 123.981 210.417 124.679C210.409 125.206 210.381 125.733 210.354 126.261V126.261V126.261V126.262V126.262V126.262V126.263V126.263C210.319 126.933 210.284 127.602 210.29 128.271C210.292 128.539 210.294 128.806 210.296 129.074V129.074V129.074V129.075V129.075V129.075V129.075V129.076C210.308 130.845 210.319 132.617 210.475 134.375C210.63 136.13 210.963 137.878 211.348 139.599C211.664 141.013 212.633 142.106 213.595 143.131C214.096 143.665 214.651 144.146 215.207 144.628C215.596 144.965 215.984 145.302 216.355 145.658C216.609 145.901 216.837 146.172 217.066 146.443C217.349 146.78 217.633 147.116 217.963 147.398C219.044 148.317 220.143 149.214 221.241 150.112C222.075 150.792 222.909 151.473 223.734 152.164C224.475 152.783 225.204 153.415 225.934 154.047C226.671 154.686 227.408 155.326 228.157 155.951C229.18 156.806 230.218 157.649 231.302 158.423C231.812 158.788 232.346 159.119 232.88 159.45L232.881 159.45C233.433 159.792 233.986 160.134 234.512 160.514C235.143 160.969 235.633 160.713 236.12 160.458C236.288 160.37 236.455 160.282 236.628 160.224C238.032 159.75 239.142 159.929 239.669 161.279C239.774 161.549 239.935 161.792 240.097 162.037L240.097 162.037C240.392 162.482 240.69 162.933 240.664 163.561C240.656 163.758 241.081 163.992 241.444 164.193C241.531 164.241 241.615 164.287 241.688 164.33C242.757 164.961 243.839 165.57 244.922 166.178C245.153 166.308 245.392 166.426 245.631 166.544C246.091 166.772 246.55 166.999 246.949 167.305C247.355 167.617 247.725 167.978 248.094 168.339C248.464 168.701 248.834 169.063 249.242 169.375C250.082 170.018 250.558 170.904 251.032 171.783L251.032 171.784L251.032 171.784L251.032 171.785L251.033 171.785L251.033 171.785L251.033 171.786L251.034 171.787C251.207 172.109 251.38 172.43 251.57 172.738C252.097 173.593 252.402 174.641 252.577 175.643C252.813 176.994 252.909 178.383 252.904 179.756C252.901 180.329 252.553 180.945 252.234 181.461C251.89 182.018 251.374 182.098 250.877 181.559C250.836 181.515 250.779 181.486 250.722 181.458L250.722 181.457L250.691 181.442C250.675 181.434 250.659 181.425 250.644 181.416C250.637 181.481 250.63 181.546 250.623 181.611C250.62 181.636 250.617 181.661 250.614 181.686C250.612 181.702 250.61 181.718 250.608 181.735C250.576 181.965 250.551 182.198 250.525 182.43C250.463 183.003 250.401 183.575 250.24 184.118C250.132 184.482 249.665 184.963 249.341 184.979C249.092 184.991 248.83 184.759 248.571 184.53C248.467 184.438 248.363 184.346 248.261 184.271C248.161 184.197 248.076 184.101 247.993 184.007L247.993 184.007L247.966 183.977C247.913 183.918 247.867 183.854 247.821 183.79C247.8 183.762 247.779 183.733 247.758 183.705L247.734 183.756L247.712 183.804C247.698 183.833 247.685 183.862 247.672 183.891C247.662 183.911 247.652 183.931 247.643 183.951C247.631 183.975 247.62 183.998 247.608 184.021C247.561 184.113 247.52 184.212 247.48 184.31C247.388 184.531 247.296 184.752 247.137 184.903C246.526 185.485 245.703 185.258 245.451 184.44C245.319 184.015 245.21 183.582 245.101 183.15C244.95 182.55 244.8 181.952 244.59 181.374C244.504 181.135 244.433 180.892 244.361 180.649C244.153 179.938 243.944 179.225 243.358 178.625C242.936 178.194 242.678 177.599 242.421 177.006L242.421 177.006L242.421 177.006L242.421 177.006C242.321 176.775 242.221 176.545 242.112 176.325C241.454 175.001 240.369 174.136 239.112 173.437C238.771 173.247 238.431 173.038 238.134 172.786C237.475 172.226 237.02 172.531 236.619 173.1C235.957 174.042 234.86 174.388 233.84 173.846C232.276 173.015 230.999 171.925 230.575 170.056C230.496 169.711 229.986 169.406 229.612 169.195C228.486 168.56 227.353 167.937 226.22 167.313L226.219 167.313C224.341 166.28 222.463 165.246 220.617 164.16C218.313 162.804 216.068 161.345 213.825 159.887L213.148 159.447C209.612 157.151 206.088 154.834 202.565 152.517L202.562 152.515C201.873 152.062 201.184 151.609 200.496 151.156C199.722 150.648 198.955 150.132 198.187 149.615C197.651 149.255 197.116 148.895 196.578 148.538C196.363 148.395 196.136 148.266 195.903 148.156C195.208 147.828 195.004 147.947 194.948 148.692C194.947 148.709 194.947 148.727 194.948 148.744L194.948 148.762L194.948 148.775L194.904 151.913V151.913V151.914V151.914V151.915V151.915V151.915V151.916C194.863 154.796 194.823 157.676 194.78 160.556C194.767 161.477 195.249 162.182 195.724 162.877C195.82 163.018 195.916 163.158 196.007 163.3C197.683 165.894 199.392 168.467 201.119 171.028C201.593 171.73 202.084 172.421 202.575 173.112L202.575 173.113L202.575 173.113C203.316 174.156 204.057 175.198 204.738 176.279C205.083 176.827 205.29 177.463 205.496 178.099C205.586 178.378 205.677 178.657 205.779 178.929C205.826 179.053 205.875 179.176 205.924 179.299C206.057 179.632 206.19 179.964 206.273 180.308C206.945 183.092 206.642 185.854 205.977 188.585C205.933 188.768 205.889 188.951 205.844 189.135C205.431 190.841 205.017 192.555 204.414 194.195C203.931 195.511 203.328 196.782 202.725 198.054L202.725 198.054L202.724 198.054L202.724 198.054L202.724 198.055L202.724 198.055C202.434 198.667 202.143 199.279 201.866 199.896C201.382 200.975 200.914 202.061 200.451 203.148C199.667 204.993 198.887 206.839 198.116 208.689C197.838 209.355 197.57 210.026 197.301 210.696L197.3 210.698L197.299 210.701L197.298 210.703L197.298 210.705L197.297 210.707L197.296 210.71L197.295 210.712C196.753 212.065 196.211 213.417 195.596 214.735C194.709 216.633 193.723 218.486 192.738 220.338L192.738 220.338L192.737 220.34L192.526 220.736L192.314 221.135C191.701 222.292 191.072 223.44 190.443 224.588L190.442 224.589L190.442 224.591L190.441 224.592L190.44 224.594L190.439 224.595L190.439 224.597L190.438 224.598C189.827 225.713 189.217 226.827 188.62 227.95C188.076 228.973 187.547 230.004 187.017 231.035C186.451 232.138 185.885 233.24 185.302 234.332C184.473 235.884 183.603 237.416 182.709 238.931C181.965 240.192 182.18 240.78 183.042 241.941C183.975 243.2 185.426 243.621 186.866 243.95C190.815 244.852 194.773 245.717 198.731 246.583L198.925 246.625C199.323 246.712 199.727 246.777 200.13 246.842L200.13 246.842H200.13C200.584 246.915 201.037 246.988 201.483 247.092C203.712 247.614 204.83 249.253 205.426 251.287C205.807 252.588 205.92 253.985 204.884 255.066C204.492 255.474 203.778 255.777 203.209 255.779C195.888 255.804 188.567 255.808 181.246 255.812H181.23C176.614 255.815 171.997 255.817 167.381 255.825C166.843 255.826 166.804 255.664 166.763 255.192C166.722 254.71 166.636 254.23 166.551 253.75C166.425 253.046 166.3 252.344 166.316 251.642C166.39 248.274 167.571 245.256 169.636 242.607C169.785 242.416 170.027 242.289 170.265 242.164C170.531 242.025 170.792 241.889 170.917 241.668C171.519 240.603 172.036 239.47 172.431 238.311C173.065 236.455 173.695 234.581 174.102 232.667C174.289 231.788 174.559 230.936 174.829 230.082C175.165 229.022 175.501 227.961 175.678 226.844C175.866 225.666 176.356 224.531 176.843 223.402L176.843 223.401C176.994 223.051 177.145 222.702 177.286 222.353C177.768 221.159 178.266 219.971 178.765 218.783L178.765 218.782C179.539 216.937 180.313 215.092 181.028 213.224C181.537 211.892 181.959 210.528 182.381 209.163C182.622 208.383 182.863 207.604 183.121 206.831C183.665 205.195 184.218 203.56 184.842 201.954C184.982 201.593 184.904 201.586 184.706 201.571H184.706C184.67 201.568 184.629 201.565 184.585 201.559C181.954 201.209 179.362 201.24 176.908 202.411C176.37 202.668 175.992 202.615 175.636 202.168C175.272 201.711 175.461 201.378 175.783 200.959C177.701 198.462 178.892 195.617 179.806 192.616C179.901 192.302 180 191.988 180.098 191.674C180.692 189.783 181.284 187.898 181.268 185.888C181.255 184.365 180.88 182.999 179.834 181.726C179.604 181.446 179.392 181.153 179.182 180.861L179.182 180.861C178.554 179.989 177.934 179.13 176.857 178.68C176.311 178.453 175.773 178.207 175.234 177.962C174.675 177.706 174.115 177.451 173.546 177.216C173.119 177.039 172.692 176.86 172.265 176.682L172.262 176.68L172.26 176.679L172.257 176.678L172.254 176.677L172.251 176.676L172.251 176.676C170.551 175.964 168.85 175.253 167.115 174.638C166.061 174.265 164.97 173.998 163.879 173.73L163.879 173.73L163.878 173.73L163.878 173.73L163.877 173.73L163.877 173.73L163.876 173.73L163.875 173.729C163.381 173.608 162.886 173.487 162.395 173.356C162.298 173.33 162.202 173.3 162.107 173.269L162.107 173.269L162.106 173.269L162.106 173.269C162.03 173.245 161.954 173.22 161.877 173.198C160.755 172.878 159.776 172.934 159.015 174.016C158.681 174.491 158.222 174.877 157.741 175.282C157.645 175.363 157.549 175.444 157.452 175.527C155.641 177.313 153.91 179.097 152.185 180.887ZM193.291 150.562C193.346 150.165 193.424 149.771 193.503 149.377C193.6 148.893 193.696 148.41 193.749 147.922L193.763 147.785C193.876 146.739 193.991 145.677 193.916 144.636C193.878 144.097 193.734 143.567 193.59 143.036C193.474 142.606 193.357 142.175 193.296 141.738C192.974 139.439 192.684 137.134 192.46 134.824C192.266 132.816 192.137 130.801 192.007 128.787L192.007 128.786L192.003 128.725C191.986 128.464 191.969 128.202 191.952 127.94C191.822 125.929 191.701 123.917 191.622 121.903C191.547 119.973 191.509 118.041 191.472 116.11V116.109L191.456 115.297C191.454 115.175 191.495 115.054 191.537 114.931C191.563 114.853 191.59 114.774 191.606 114.695C191.623 114.606 191.645 114.516 191.666 114.426L191.666 114.426C191.726 114.178 191.786 113.927 191.763 113.686C191.739 113.42 191.679 113.155 191.62 112.891L191.62 112.89C191.539 112.532 191.458 112.175 191.467 111.819C191.526 109.459 191.633 107.099 191.74 104.74L191.761 104.259L191.787 103.696C191.809 103.189 191.875 102.682 191.952 102.18C192.17 100.76 192.397 99.342 192.624 97.9236L192.783 96.9345C192.801 96.8192 192.826 96.7049 192.851 96.5906C192.862 96.5376 192.874 96.4846 192.884 96.4316C192.888 96.4649 192.892 96.4982 192.897 96.5315L192.908 96.6087C192.926 96.7354 192.944 96.8621 192.946 96.9892C192.998 99.6315 193.047 102.274 193.096 104.916V104.917V104.918V104.918V104.919V104.92V104.92L193.097 104.959L193.115 105.932C193.131 106.821 193.148 107.709 193.165 108.598C193.206 110.718 193.247 112.838 193.28 114.958C193.302 116.361 193.319 117.764 193.337 119.166V119.167V119.167V119.167V119.167V119.167V119.167V119.167C193.368 121.719 193.399 124.271 193.46 126.822C193.505 128.724 193.626 130.628 193.794 132.524C193.918 133.915 194.099 135.301 194.28 136.687L194.28 136.689C194.337 137.128 194.395 137.567 194.45 138.006C194.528 138.62 194.612 139.234 194.697 139.848C194.845 140.921 194.993 141.994 195.103 143.071C195.244 144.439 195.902 145.547 196.85 146.424C197.541 147.065 198.321 147.61 199.1 148.155L199.101 148.156L199.101 148.156L199.101 148.156L199.101 148.156L199.102 148.156L199.102 148.157C199.409 148.372 199.717 148.586 200.018 148.807C200.65 149.269 201.278 149.735 201.907 150.201L201.908 150.201L201.908 150.202C203.486 151.371 205.064 152.54 206.686 153.646C208.135 154.633 209.626 155.559 211.118 156.484L211.118 156.484L211.119 156.485L211.119 156.485L211.12 156.485L211.12 156.485L211.12 156.486L211.121 156.486C211.842 156.933 212.563 157.381 213.28 157.836C213.969 158.273 214.655 158.714 215.341 159.155L215.343 159.157L215.346 159.158L215.347 159.159C216.566 159.943 217.785 160.727 219.02 161.487L219.254 161.632C221.518 163.026 223.783 164.422 226.101 165.722C227.203 166.34 228.372 166.842 229.538 167.343C229.837 167.472 230.136 167.6 230.434 167.731C230.607 167.806 231.005 167.72 231.087 167.582C231.282 167.255 231.408 166.886 231.533 166.519C231.558 166.446 231.583 166.373 231.608 166.3C232.096 164.91 232.712 163.612 233.764 162.529C234.558 161.712 234.446 161.466 233.344 161.002C233.282 160.976 233.22 160.95 233.158 160.925C232.697 160.732 232.232 160.538 231.814 160.274C231.037 159.784 230.281 159.251 229.554 158.687C228.909 158.186 228.263 157.687 227.616 157.188C225.436 155.505 223.255 153.821 221.135 152.065C219.161 150.43 217.285 148.668 215.448 146.878C215.192 146.629 214.934 146.382 214.675 146.135C213.112 144.64 211.542 143.14 210.55 141.157C210.415 140.885 210.257 140.624 210.1 140.362C209.644 139.602 209.188 138.843 209.255 137.844C209.297 137.234 209.215 136.615 209.133 135.997V135.997V135.996V135.996V135.996V135.996V135.996V135.996C209.104 135.772 209.074 135.548 209.05 135.325C208.986 134.722 208.91 134.119 208.834 133.516C208.679 132.285 208.524 131.054 208.471 129.818C208.4 128.149 208.417 126.476 208.433 124.803V124.803C208.44 124.082 208.447 123.362 208.447 122.642C208.447 122.473 208.442 122.304 208.437 122.134C208.426 121.764 208.415 121.394 208.456 121.029C208.654 119.255 208.855 117.48 209.122 115.715C209.174 115.373 209.225 115.03 209.275 114.686L209.276 114.68C209.525 112.99 209.774 111.296 210.186 109.645C210.544 108.206 210.985 106.788 211.426 105.369L211.426 105.368L211.426 105.368L211.427 105.367L211.427 105.367L211.427 105.366L211.427 105.366L211.427 105.365L211.427 105.365C211.776 104.243 212.124 103.122 212.432 101.989C212.654 101.174 212.898 100.364 213.143 99.5547L213.143 99.5545L213.143 99.5543L213.143 99.5541C213.754 97.5277 214.366 95.5006 214.626 93.3808C214.682 92.9188 214.799 92.4585 214.916 91.9998C215.087 91.3251 215.258 90.6539 215.234 89.9857C215.148 87.5718 214.476 85.2457 213.799 82.9236C212.788 79.4549 211.034 76.5617 207.999 74.5025C206.248 73.3145 204.413 72.4445 202.241 72.724C201.453 72.8254 200.673 72.9879 199.893 73.1505C199.517 73.2287 199.142 73.3069 198.766 73.3783C196.631 73.7834 194.742 74.7256 193.041 76.05C192.045 76.8253 191.073 77.6341 190.127 78.47C189.181 79.3059 188.236 80.1512 187.375 81.0711C186.574 81.9266 185.828 82.8352 185.083 83.743L185.083 83.7434L185.082 83.7448L185.081 83.7461L185.08 83.7474C184.919 83.9438 184.758 84.14 184.596 84.3357C183.316 85.8866 182.039 87.4407 180.787 89.0141C180.238 89.7034 179.701 90.4018 179.163 91.1001C178.351 92.1553 177.539 93.2104 176.689 94.2338C175.146 96.0899 173.546 97.899 171.921 99.6839C169.689 102.137 167.418 104.554 165.147 106.97C164.953 107.176 164.731 107.356 164.508 107.535L164.508 107.535L164.508 107.535L164.508 107.535L164.508 107.535L164.508 107.535L164.508 107.535L164.508 107.536C164.241 107.751 163.975 107.965 163.76 108.224C162.116 110.209 160.568 112.28 159.468 114.618C158.455 116.774 157.479 118.947 156.502 121.12L156.502 121.12L156.502 121.12L156.502 121.12L156.502 121.12L156.502 121.12L156.502 121.121L156.502 121.121C155.624 123.074 154.746 125.028 153.842 126.968C152.376 130.115 150.762 133.179 148.814 136.072L148.671 136.285C147.628 137.836 146.584 139.388 145.113 140.519C143.197 141.993 141.201 143.365 139.207 144.736L139.207 144.737C138.686 145.095 138.165 145.453 137.646 145.812C135.963 146.978 134.632 148.45 133.977 150.387C133.174 152.767 133.585 155.13 134.707 157.299C136.088 159.969 138.275 162.009 140.507 163.953C142.984 166.111 145.862 167.658 148.968 168.653C152.96 169.932 156.975 171.173 161.198 171.535C162.302 171.63 163.402 171.775 164.502 171.919H164.502H164.502H164.502H164.502H164.503H164.503H164.503C165.729 172.081 166.955 172.242 168.187 172.334C170.911 172.538 173.647 172.65 176.379 172.665C177.607 172.672 178.836 172.587 180.065 172.502L180.066 172.502C180.846 172.447 181.626 172.393 182.406 172.363C184.528 172.279 186.538 171.722 188.518 171.018C189.848 170.545 191.079 169.894 191.565 168.458C191.848 167.621 191.989 166.726 192.105 165.846L192.135 165.619V165.619V165.619V165.619V165.618V165.618V165.618V165.618C192.38 163.76 192.626 161.899 192.766 160.031C192.895 158.31 192.962 156.585 193.032 154.795L193.032 154.794L193.032 154.793L193.032 154.792C193.058 154.119 193.085 153.438 193.115 152.744C193.132 152.52 193.146 152.297 193.159 152.073C193.19 151.567 193.221 151.062 193.291 150.562ZM122.717 201.228C122.806 201.308 123.009 201.36 123.108 201.315C123.564 201.107 124.028 200.912 124.491 200.716L124.491 200.716C125.622 200.239 126.753 199.762 127.771 199.109C129.589 197.945 131.363 196.711 133.137 195.478L133.137 195.478L133.137 195.477L133.138 195.477L133.138 195.477L133.138 195.477L133.138 195.477L133.139 195.477L133.139 195.476C134.532 194.508 135.924 193.54 137.338 192.604C140.422 190.565 143.126 188.081 145.83 185.597L145.83 185.597L145.831 185.596L145.831 185.596L145.831 185.596L145.832 185.595L145.832 185.595L145.832 185.595L145.833 185.594C146.359 185.111 146.885 184.628 147.414 184.148C148.236 183.402 149.009 182.601 149.782 181.801L149.783 181.801C149.95 181.628 150.117 181.455 150.285 181.282C151.204 180.336 152.116 179.382 153.027 178.427L153.028 178.426C153.423 178.012 153.818 177.598 154.214 177.185C154.498 176.888 154.783 176.593 155.067 176.297L155.068 176.296C156.102 175.222 157.135 174.147 158.137 173.043C158.256 172.913 158.108 172.263 157.972 172.223C157.405 172.051 156.826 171.91 156.249 171.77L156.248 171.769C155.515 171.591 154.782 171.413 154.07 171.171L153.708 171.048C150.765 170.045 147.817 169.042 144.936 167.877C142.298 166.809 139.854 165.344 137.669 163.485C137.636 163.456 137.479 163.494 137.462 163.535C136.831 165.06 135.657 166.098 134.478 167.141C134.21 167.378 133.941 167.616 133.678 167.86C132.441 169.009 131.213 170.186 130.129 171.475C129.429 172.308 128.832 173.23 128.237 174.151C128.018 174.489 127.799 174.828 127.575 175.162C127.321 175.539 127.054 175.911 126.786 176.282C126.13 177.194 125.473 178.106 125.024 179.111C124.02 181.351 122.465 183.137 120.842 184.876C119.246 186.586 117.071 187.223 114.923 187.852C114.778 187.894 114.632 187.937 114.486 187.98L114.325 188.028C113.536 188.263 112.724 188.421 111.912 188.578L111.912 188.579L111.911 188.579L111.911 188.579C111.466 188.665 111.021 188.752 110.58 188.851C110.468 188.876 110.367 188.952 110.266 189.027L110.265 189.027C110.219 189.062 110.172 189.097 110.125 189.127C110.177 189.189 110.23 189.269 110.283 189.349C110.397 189.521 110.512 189.693 110.614 189.686C111.65 189.613 112.425 190.146 113.186 190.669L113.186 190.669C113.389 190.809 113.591 190.948 113.797 191.075C114.8 191.693 115.786 192.358 116.371 193.508C116.75 194.255 117.26 194.936 117.769 195.616L117.769 195.616C117.925 195.824 118.081 196.032 118.232 196.242C118.857 197.105 119.511 197.948 120.222 198.866L120.223 198.866L120.374 199.061L120.64 199.309L120.897 199.549L120.905 199.557L120.907 199.558C121.507 200.118 122.108 200.678 122.717 201.228ZM173.907 175.365C174.542 175.703 175.218 175.96 175.895 176.218C177.227 176.725 178.56 177.232 179.577 178.355C179.886 178.697 180.242 178.994 180.598 179.292C180.829 179.486 181.061 179.68 181.28 179.886C182.005 180.567 182.255 181.478 182.504 182.384C182.521 182.445 182.538 182.506 182.555 182.567C182.574 182.638 182.594 182.709 182.615 182.779C183.299 185.16 183.144 187.624 182.543 189.908L182.427 190.351C181.626 193.402 180.814 196.499 179.114 199.237C178.917 199.554 178.814 199.724 179.356 199.74C180.814 199.782 182.272 199.836 183.73 199.891C185.336 199.951 186.942 200.011 188.548 200.054C189.555 200.081 190.563 200.075 191.571 200.068H191.573C192.268 200.064 192.963 200.059 193.658 200.066C195.477 200.083 197.245 199.82 198.902 199.048C198.968 199.017 199.036 198.986 199.105 198.954C199.671 198.696 200.311 198.403 200.567 197.939C201.217 196.756 201.678 195.453 202.099 194.161C202.713 192.269 203.322 190.365 203.751 188.426C204.117 186.77 204.302 185.063 204.416 183.368C204.451 182.858 204.364 182.341 204.277 181.824C204.208 181.412 204.139 180.999 204.13 180.588C204.096 178.974 203.331 177.66 202.567 176.346C202.522 176.269 202.477 176.192 202.432 176.115C202.254 175.807 202.026 175.53 201.798 175.252C201.619 175.035 201.441 174.817 201.285 174.585C200.062 172.756 198.843 170.922 197.625 169.089L197.618 169.079L197.611 169.068C196.748 167.769 195.885 166.47 195.02 165.173C194.936 165.048 194.829 164.94 194.722 164.831L194.722 164.831C194.672 164.78 194.622 164.73 194.575 164.678C194.527 164.751 194.47 164.823 194.414 164.894C194.29 165.051 194.167 165.208 194.131 165.383C194.047 165.789 193.991 166.2 193.936 166.612V166.612C193.889 166.962 193.842 167.313 193.777 167.66C193.4 169.672 192.437 171.219 190.54 172.214C187.926 173.585 185.116 174.171 182.245 174.501C180.589 174.691 178.903 174.722 177.236 174.668C176.234 174.635 175.234 174.511 174.235 174.387L174.234 174.387C173.693 174.32 173.152 174.253 172.61 174.201C172.464 174.187 172.312 174.231 172.161 174.275C172.091 174.295 172.02 174.316 171.951 174.33C171.993 174.364 172.034 174.398 172.076 174.432L172.079 174.434C172.185 174.522 172.292 174.609 172.404 174.69C172.427 174.707 172.454 174.719 172.487 174.735C172.538 174.759 172.606 174.791 172.701 174.859L172.743 174.877L172.807 174.903C172.84 174.916 172.873 174.929 172.905 174.941L172.999 174.977L173.086 175.011L173.086 175.011C173.366 175.118 173.645 175.226 173.907 175.365ZM208.469 47.2294C207.413 48.7749 206.775 50.5373 206.453 52.39C206.126 54.2726 206.08 56.1765 206.631 58.0141C206.957 59.0987 207.326 60.1707 207.694 61.2425L207.694 61.2427L207.694 61.2428L207.694 61.243L207.695 61.2432L207.695 61.2433L207.695 61.2435L207.695 61.2437C208.121 62.4847 208.548 63.7255 208.908 64.9857C209.13 65.7638 209.634 66.1281 210.19 66.324C212.815 67.2486 215.666 66.1242 217.296 63.7109C217.739 63.0559 217.484 62.787 217.034 62.329C216.425 61.7091 215.893 60.9911 215.439 60.2466C214.763 59.1354 215.049 58.0026 215.824 57.1052C216.6 56.2071 217.764 56.0076 218.847 56.3838C220.085 56.8137 220.975 57.7602 221.61 58.9192C221.64 58.9734 221.661 59.0323 221.683 59.0911L221.683 59.0914C221.693 59.1188 221.703 59.1462 221.713 59.1732C221.72 59.1583 221.728 59.1437 221.735 59.129C221.751 59.0976 221.767 59.0662 221.778 59.0331C221.871 58.747 221.962 58.4592 222.052 58.1712C222.526 56.66 223.002 55.1448 223.96 53.8555C224.707 52.8505 225.512 51.8482 226.461 51.0461C227.17 50.4463 228.046 50.029 228.905 49.6197L228.906 49.6195L229.121 49.5169C229.174 49.4913 229.227 49.4657 229.281 49.4401C229.574 49.2984 229.867 49.1538 230.16 49.009C231.39 48.4014 232.626 47.7914 233.921 47.3855C234.139 47.3173 234.249 47.2836 234.3 47.2681L234.3 47.268L234.328 47.2595C234.336 47.2571 234.339 47.256 234.339 47.2559L234.337 47.2561L234.332 47.2573L234.332 47.2574C234.263 47.2725 233.825 47.3704 238.108 45.8257C244.088 43.669 241.011 36.8752 239.241 35.3806C239.109 35.2693 238.899 35.1498 238.758 35.1804C238.63 35.208 238.468 35.43 238.455 35.5783C238.322 37.0634 236.146 39.3681 230.975 39.0103C227.437 38.7654 227.36 38.7794 227.191 38.8106C227.113 38.8249 227.015 38.8429 226.549 38.8407C225.434 38.8356 221.575 39.195 220.794 39.4156C220.511 39.4958 220.14 39.5732 219.704 39.6644C217.625 40.0988 214.06 40.8438 211.363 43.669C211.064 44.032 210.757 44.3893 210.45 44.7465C209.758 45.5521 209.065 46.3576 208.469 47.2294ZM222.61 61.9752C222.61 62.7264 222.459 63.4655 222.309 64.2044C222.236 64.5596 222.164 64.9148 222.108 65.2713C222.1 65.3276 222.07 65.3807 222.041 65.4337C222.032 65.4506 222.022 65.4675 222.014 65.4845L222.009 65.4947L222.002 65.508C221.996 65.4839 221.99 65.4599 221.983 65.4359C221.969 65.3846 221.955 65.3334 221.946 65.2814C221.877 64.9176 221.813 64.5527 221.75 64.1878C221.605 63.3623 221.461 62.5368 221.264 61.7241C221.027 60.7499 220.764 59.757 220.328 58.8634C219.823 57.8301 217.708 57.3425 216.667 57.8846C216.074 58.1937 215.789 58.9345 216.174 59.4728C216.538 59.982 216.985 60.5024 217.516 60.8054C218.388 61.303 218.672 62.1327 218.742 62.9462C218.876 64.4756 217.271 66.6263 215.711 67.013C214.293 67.3647 212.848 67.6093 211.404 67.8537L211.403 67.8539C211.062 67.9115 210.722 67.9691 210.382 68.0281C210.347 68.0342 210.312 68.04 210.278 68.0457C209.823 68.1207 209.462 68.1804 209.606 68.8462C209.997 70.6537 210.124 72.4746 209.796 74.3131C209.776 74.4247 209.98 74.5998 210.109 74.7104C210.274 74.8516 210.448 74.9846 210.621 75.1175L210.622 75.1175C210.941 75.3619 211.26 75.6059 211.523 75.9C211.957 76.3833 212.361 76.8929 212.765 77.4027L212.766 77.403C213.043 77.753 213.321 78.103 213.608 78.4446C213.683 78.5338 213.985 78.5711 214.057 78.502C214.425 78.1499 214.784 77.7877 215.143 77.4256C215.563 77.0015 215.984 76.5776 216.419 76.1698C217.471 75.1842 218.55 74.2259 219.642 73.2843C219.783 73.1623 219.978 73.1025 220.173 73.0428C220.263 73.0152 220.353 72.9876 220.438 72.954C220.402 73.0356 220.367 73.1176 220.333 73.1997C220.238 73.4238 220.144 73.6479 220.032 73.863C220.012 73.9005 219.956 73.9157 219.897 73.9317C219.846 73.9454 219.793 73.9597 219.759 73.9893L219.736 74.0097L219.706 74.0351L219.706 74.0354C219.495 74.2149 219.341 74.3468 219.808 74.5694C220.302 74.8047 220.759 75.1167 221.217 75.4286L221.217 75.4287C221.408 75.559 221.599 75.6893 221.793 75.814C224.779 77.7357 227.997 78.6381 231.558 78.0541C233.572 77.7238 234.955 76.6522 235.569 74.6698C236.157 72.7709 235.913 72.2184 234.098 71.4553C234.036 71.4293 233.974 71.4036 233.912 71.3778C232.955 70.9798 232.005 70.5845 231.754 69.4116C231.651 68.9294 232.543 68.4094 232.74 68.8616C232.741 68.8644 232.742 68.8673 232.743 68.8702C232.937 69.7546 233.608 70.0602 234.316 70.3788C235.618 70.9649 235.777 70.8829 235.777 69.5464C235.777 68.648 235.777 68.2109 235.984 67.9245C236.181 67.653 236.565 67.5168 237.311 67.2516C238.2 66.9359 238.344 66.6271 237.939 65.7636C237.329 64.4595 236.931 63.1309 237.1 61.6564C237.308 59.8393 237.481 58.0163 237.596 56.1912C237.669 55.0184 237.739 53.8182 237.572 52.6653C237.464 51.9269 237.2 51.2112 236.937 50.4958C236.824 50.188 236.71 49.8803 236.609 49.5709C236.372 48.8438 235.801 48.5516 235.055 48.8205C234.589 48.9885 234.12 49.1505 233.651 49.3125L233.651 49.3126C232.345 49.7636 231.039 50.2149 229.794 50.7969C228.483 51.4095 227.156 52.1694 226.137 53.1707C225.222 54.0703 222.61 58.602 222.61 61.9752ZM114.973 203.569C115.525 203.446 116.078 203.323 116.631 203.201C117.833 202.935 119.036 202.668 120.236 202.391C120.409 202.352 120.57 202.262 120.732 202.173L120.732 202.173C120.806 202.132 120.881 202.091 120.957 202.054C120.937 202.043 120.917 202.031 120.897 202.019C120.874 202.007 120.852 201.994 120.83 201.981L120.763 201.944C120.613 201.86 120.462 201.776 120.325 201.674C120.172 201.563 120.043 201.416 119.917 201.273L119.91 201.265C119.552 200.859 119.189 200.458 118.825 200.056L118.825 200.055L118.824 200.054L118.823 200.054L118.822 200.053L118.822 200.052L118.821 200.051L118.82 200.05L118.82 200.05L118.82 200.05L118.82 200.05L118.82 200.05L118.82 200.05L118.82 200.05L118.819 200.049C117.93 199.066 117.041 198.084 116.229 197.04C115.426 196.009 114.788 194.839 114.158 193.685L114.142 193.656C113.832 193.088 113.479 192.847 112.882 193.056C110.344 193.942 107.716 194.426 105.088 194.91C103.717 195.163 102.346 195.415 100.988 195.725C98.762 196.232 87.5562 198.159 86.5804 198.229C86.1066 198.263 85.6328 198.311 85.1591 198.36L85.1585 198.36L85.1579 198.36L85.1573 198.36L85.1567 198.36L85.1561 198.36L85.1555 198.36L85.1549 198.36H85.1548H85.1546H85.1545H85.1543H85.1541H85.154H85.1538C84.2306 198.454 83.3078 198.547 82.3858 198.537C80.0288 198.511 77.7184 198.765 75.4099 199.213C74.6822 199.354 73.9441 199.443 73.2062 199.533L73.2057 199.533L73.2054 199.533C72.3627 199.635 71.5203 199.737 70.6942 199.916C68.0334 200.493 67.1419 202.764 67.8274 204.984C67.959 205.41 68.4293 205.891 68.8514 206.041C70.7762 206.722 72.791 206.898 74.8277 206.914C75.8767 206.923 76.9255 206.971 77.9742 207.02H77.9745H77.9747H77.9749H77.9752H77.9754H77.9756H77.9759C78.3755 207.038 78.7751 207.057 79.1747 207.073C80.677 207.135 82.1793 207.197 83.6815 207.26L83.6824 207.26L83.6834 207.26L83.6843 207.26C84.8569 207.309 86.0295 207.357 87.2021 207.406C87.2852 207.409 87.3686 207.408 87.4519 207.407C87.5353 207.405 87.6187 207.404 87.7019 207.407C88.1129 207.424 88.5246 207.452 88.9363 207.48L88.9367 207.481C89.8372 207.542 90.7375 207.603 91.6307 207.548C93.0324 207.461 94.4291 207.296 95.8259 207.13C96.4744 207.053 97.1229 206.976 97.772 206.907C98.1699 206.865 98.5689 206.83 98.9679 206.796H98.9681C99.6917 206.733 100.415 206.67 101.132 206.562L101.493 206.507L101.494 206.507C103.324 206.229 105.158 205.951 106.964 205.552C108.367 205.243 109.76 204.889 111.184 204.527C112.226 204.262 113.284 203.993 114.374 203.735C114.437 203.717 114.5 203.698 114.563 203.68C114.699 203.64 114.835 203.6 114.973 203.569ZM178.474 242.163C179.336 240.925 180.152 239.652 180.943 238.366C181.662 237.198 182.334 236 183.006 234.803C183.607 233.732 184.231 232.673 184.855 231.615L184.856 231.614C186.305 229.157 187.754 226.7 188.917 224.079C189.587 222.569 190.363 221.107 191.139 219.644L191.14 219.643L191.14 219.642L191.141 219.641L191.141 219.64L191.142 219.639L191.142 219.638L191.143 219.637C191.512 218.942 191.88 218.247 192.238 217.547C192.407 217.216 192.579 216.886 192.751 216.557L192.751 216.556L192.751 216.556L192.751 216.556C193.223 215.652 193.696 214.748 194.101 213.816C194.407 213.111 194.676 212.387 194.944 211.665L194.944 211.664L194.944 211.664L194.944 211.664L194.944 211.664L194.944 211.664L194.945 211.663L194.945 211.663C195.357 210.552 195.77 209.441 196.318 208.401C197.198 206.73 197.782 204.965 198.367 203.198C198.556 202.625 198.746 202.051 198.946 201.481C198.977 201.392 198.997 201.3 199.017 201.207C199.026 201.164 199.035 201.121 199.046 201.079C199.013 201.085 198.98 201.091 198.947 201.097L198.903 201.104L198.903 201.104C198.799 201.122 198.695 201.14 198.595 201.169C198.394 201.229 198.195 201.302 197.995 201.374L197.995 201.374C197.581 201.525 197.168 201.676 196.744 201.709C195.163 201.833 193.572 201.887 191.986 201.886C191.005 201.886 190.024 201.847 189.043 201.809H189.042H189.042H189.042H189.041H189.041H189.041H189.041C188.407 201.784 187.774 201.759 187.141 201.744C187.024 201.741 186.839 201.889 186.792 202.008L186.624 202.434L186.618 202.448L186.618 202.448L186.617 202.45C186.221 203.449 185.825 204.45 185.479 205.467C184.616 208.002 183.779 210.546 182.952 213.093C181.903 216.326 180.611 219.447 179.188 222.544C177.868 225.414 176.884 228.471 176.26 231.618C175.968 233.087 175.537 234.529 175.106 235.969C175.002 236.317 174.898 236.664 174.796 237.011C174.476 238.101 174.124 239.181 173.771 240.261C173.644 240.651 173.516 241.041 173.39 241.432C173.102 242.326 173.356 243.162 174.059 243.27C174.843 243.392 175.652 243.348 176.534 243.292C177.334 243.181 178.021 242.813 178.474 242.163ZM63.2817 211.404C64.1516 209.973 65.0478 208.678 66.8162 208.291C67.4727 208.147 67.509 207.805 67.0739 207.256C66.9784 207.135 66.8777 207.015 66.7764 206.894C66.4128 206.461 66.0423 206.019 65.8854 205.517C65.7158 204.975 65.7489 204.361 65.7814 203.759C65.7898 203.604 65.7981 203.449 65.8029 203.297C65.8605 201.477 66.3746 199.923 68.1769 199.039C68.7117 198.777 69.0328 198.382 68.4964 197.608C67.2876 195.864 65.6857 194.63 63.9195 193.561C63.2272 193.142 62.5897 193.391 62.3145 194.122C62.1949 194.44 62.0739 194.758 61.9529 195.076C61.5703 196.08 61.1878 197.084 60.8485 198.102C60.4761 199.221 60.1217 200.345 59.7674 201.47L59.7673 201.47L59.7672 201.47C59.3932 202.657 59.0192 203.844 58.6239 205.023C58.2974 205.997 58.01 206.983 57.7226 207.968C57.2031 209.749 56.6834 211.531 55.932 213.251C54.2021 217.21 52.8038 221.305 52.1422 225.608C52.1072 225.835 52.1559 226.225 52.2905 226.294C52.4952 226.398 52.8448 226.36 53.0688 226.251C53.4421 226.068 53.8342 225.84 54.0955 225.528C54.9159 224.549 55.6791 223.521 56.4644 222.345C57.112 221.309 57.7621 220.274 58.4123 219.239L58.4128 219.238L58.4145 219.235L58.42 219.227C60.0534 216.627 61.6869 214.027 63.2817 211.404ZM185.739 245.13C185.581 245.09 185.423 245.052 185.265 245.013C183.816 244.661 182.377 244.31 181.537 242.813C181.141 242.106 180.795 242.16 180.395 242.936C180.049 243.609 179.62 244.2 178.935 244.55C178.571 244.737 178.186 244.888 177.799 245.025C175.881 245.705 174.015 245.791 172.333 244.416C171.512 243.745 171.245 243.807 170.606 244.641C169.571 245.99 169.04 247.564 168.513 249.13L168.467 249.264C167.898 250.951 168.207 251.304 170 251.304H202.159C202.211 251.304 202.265 251.307 202.32 251.312L202.367 251.316C202.528 251.329 202.689 251.343 202.817 251.284C202.982 251.208 203.202 250.848 203.175 250.818C203.056 250.688 202.941 250.551 202.825 250.414C202.471 249.994 202.113 249.568 201.658 249.337C200.75 248.877 199.734 248.604 198.738 248.352C195.064 247.422 191.379 246.533 187.532 245.629C187.345 245.576 187.159 245.523 186.972 245.47C186.562 245.352 186.152 245.235 185.739 245.13ZM248.63 183.337C248.668 183.478 248.837 183.583 249.005 183.689C249.083 183.738 249.161 183.786 249.225 183.839C249.268 183.779 249.32 183.719 249.373 183.66C249.488 183.531 249.602 183.403 249.609 183.268C249.618 183.089 249.63 182.909 249.642 182.728C249.689 182.025 249.736 181.314 249.597 180.646C249.326 179.339 248.898 178.054 248.414 176.808C248.292 176.496 248.437 176.348 248.573 176.209C248.671 176.107 248.765 176.011 248.75 175.861C248.837 175.917 248.93 175.968 249.024 176.019C249.237 176.136 249.449 176.253 249.59 176.428C249.713 176.582 249.77 176.788 249.827 176.995C249.862 177.119 249.896 177.243 249.945 177.357C250.012 177.516 250.079 177.674 250.146 177.833L250.149 177.84C250.481 178.626 250.813 179.412 251.197 180.171C251.265 180.306 251.47 180.371 251.674 180.437C251.769 180.467 251.863 180.497 251.944 180.534C251.979 180.458 252.022 180.381 252.066 180.304C252.163 180.136 252.259 179.969 252.257 179.802C252.25 179.046 252.19 178.288 252.1 177.537C252.086 177.419 252.073 177.299 252.061 177.179C252.004 176.638 251.946 176.086 251.737 175.606C251.101 174.145 250.426 172.689 249.615 171.322C249.101 170.456 248.403 169.647 247.628 169.006C246.94 168.436 246.148 167.99 245.359 167.545C245.148 167.426 244.937 167.308 244.729 167.187C243.456 166.448 242.165 165.74 240.872 165.038L240.851 165.026L240.829 165.014C240.678 164.928 240.499 164.826 240.34 165.173C240.041 165.828 239.724 166.474 239.406 167.12L239.406 167.12C238.91 168.128 238.415 169.136 237.99 170.173C237.982 170.193 237.973 170.213 237.964 170.234L237.964 170.235L237.964 170.235L237.962 170.24L237.961 170.243C237.794 170.639 237.499 171.338 238.402 171.725C239.37 172.14 240.322 172.737 241.086 173.46C243.333 175.589 244.347 178.435 245.354 181.261L245.432 181.482C245.626 182.026 245.765 182.589 245.904 183.153L245.904 183.153C245.97 183.421 246.036 183.688 246.108 183.954C246.134 184.05 246.165 184.146 246.195 184.241C246.21 184.285 246.224 184.329 246.238 184.373C246.285 184.339 246.34 184.307 246.395 184.276C246.513 184.208 246.631 184.141 246.673 184.041C247.097 183.022 247.225 181.997 246.909 180.889C246.658 180.009 246.567 179.077 246.477 178.159V178.159L246.469 178.076C246.458 177.963 246.615 177.835 246.771 177.706C246.843 177.647 246.915 177.588 246.971 177.53C246.995 177.562 247.022 177.593 247.05 177.624C247.065 177.641 247.08 177.658 247.096 177.675C247.191 177.779 247.286 177.884 247.319 178.005C247.391 178.262 247.457 178.521 247.525 178.784L247.525 178.785C247.648 179.264 247.774 179.757 247.942 180.284C247.971 180.419 248 180.554 248.029 180.689C248.057 180.821 248.085 180.952 248.112 181.084L248.112 181.084L248.112 181.084L248.113 181.084L248.113 181.084L248.113 181.085L248.113 181.085L248.113 181.085C248.272 181.839 248.431 182.594 248.63 183.337ZM238.381 166.312C238.501 166.023 238.644 165.747 238.787 165.47C239.134 164.8 239.48 164.129 239.5 163.284C239.517 162.511 239.377 162.096 238.753 161.716C238.093 161.313 237.34 161.07 236.753 161.533C235.417 162.587 234.185 163.81 233.471 165.376C233.021 166.363 232.697 167.408 232.373 168.452C232.262 168.81 232.151 169.168 232.035 169.523C231.969 169.726 232 169.978 232.043 170.195C232.301 171.499 233.274 172.143 234.356 172.689C234.927 172.978 235.349 172.835 235.606 172.27C235.78 171.887 235.952 171.504 236.125 171.116L236.125 171.115L236.126 171.115L236.126 171.114L236.126 171.113L236.129 171.108L236.129 171.106C236.493 170.293 236.864 169.465 237.276 168.6C237.391 168.366 237.508 168.133 237.626 167.9C237.892 167.377 238.157 166.853 238.381 166.312ZM50.311 225.151C50.9072 223.731 51.4734 222.293 51.9509 220.829C52.2703 219.85 52.5519 218.859 52.8336 217.868C53.0886 216.97 53.3436 216.072 53.6267 215.184C54.0711 213.789 54.5371 212.401 55.0031 211.013L55.0033 211.013C55.4388 209.716 55.8743 208.419 56.2921 207.117C57.0744 204.678 57.8375 202.232 58.6006 199.787C58.9434 198.688 59.2863 197.59 59.6309 196.491C59.7216 196.202 59.8136 195.914 59.9057 195.625L59.9059 195.624C60.1506 194.857 60.3952 194.09 60.6146 193.315C60.6472 193.2 60.581 193.057 60.5148 192.914C60.4842 192.848 60.4535 192.782 60.4327 192.719C60.3649 192.763 60.2866 192.803 60.2082 192.843C60.0387 192.929 59.8692 193.016 59.8072 193.151C59.2205 194.435 58.6471 195.728 58.1408 197.046C57.6747 198.259 57.2586 199.491 56.8428 200.723C56.7732 200.929 56.7036 201.135 56.6338 201.341C56.5564 201.57 56.4787 201.798 56.401 202.027L56.401 202.027C55.9644 203.31 55.5278 204.594 55.1391 205.891C54.7368 207.235 54.3555 208.585 53.9741 209.935C53.6949 210.924 53.4157 211.912 53.1282 212.898C53.0227 213.26 52.9181 213.622 52.8136 213.985L52.8135 213.985C52.374 215.508 51.9343 217.031 51.4223 218.53C51.1034 219.463 50.7663 220.39 50.4279 221.32L50.4278 221.32L50.4277 221.321C49.9551 222.62 49.48 223.926 49.0486 225.266C49.6742 226.092 49.9134 226.099 50.311 225.151ZM191.615 254.391C191.994 254.365 192.373 254.337 192.752 254.309L192.754 254.309H192.754H192.754H192.754H192.754H192.754H192.754C193.589 254.247 194.423 254.186 195.258 254.145C196.361 254.091 197.464 254.043 198.568 253.995C200.027 253.931 201.486 253.868 202.944 253.791C203.059 253.785 203.168 253.67 203.277 253.556C203.328 253.502 203.379 253.449 203.43 253.407C203.386 253.38 203.343 253.35 203.3 253.321C203.199 253.253 203.099 253.186 202.989 253.148C202.902 253.119 202.804 253.126 202.705 253.133C202.662 253.136 202.618 253.139 202.575 253.139H169.444C169.392 253.139 169.335 253.133 169.277 253.126C169.151 253.112 169.025 253.097 168.955 253.153C168.718 253.345 168.504 253.59 168.36 253.856C168.33 253.912 168.618 254.25 168.796 254.289C169.288 254.399 169.8 254.467 170.305 254.468C177.38 254.478 184.456 254.475 191.615 254.391ZM239.359 256.967L239.358 256.967C236.823 257.964 234.302 258.955 231.815 260.025C230.116 260.756 228.415 260.868 226.646 260.815C226.495 260.811 226.346 260.777 226.196 260.743C226.035 260.707 225.875 260.671 225.714 260.671C225.585 260.671 225.455 260.743 225.325 260.814C225.267 260.846 225.209 260.878 225.151 260.904C225.181 260.952 225.209 261.002 225.237 261.053C225.298 261.165 225.359 261.277 225.449 261.358C225.705 261.586 225.971 261.821 226.272 261.978C228.565 263.179 229.89 266.457 229.08 268.917C228.682 270.125 228.201 271.407 227.396 272.347C226.74 273.111 225.598 273.616 224.579 273.88C222.969 274.298 221.29 274.311 219.667 273.723C218.248 273.208 217.229 272.256 216.478 270.969C214.653 267.842 215.403 265.129 217.344 262.604C217.599 262.273 218.009 262.064 218.424 261.854C218.655 261.736 218.888 261.618 219.095 261.478C219.241 261.378 219.355 261.23 219.469 261.082L219.5 261.042L219.535 260.997C219.565 260.959 219.596 260.921 219.628 260.884C219.581 260.873 219.534 260.86 219.487 260.847C219.443 260.834 219.399 260.821 219.354 260.808C219.145 260.747 218.936 260.685 218.725 260.676C218.58 260.67 218.433 260.707 218.286 260.745C218.149 260.78 218.012 260.815 217.875 260.815L212.703 260.818C201.009 260.826 189.316 260.833 177.622 260.814C174.797 260.81 171.972 260.768 169.148 260.726C167.486 260.701 165.823 260.676 164.161 260.659C162.934 260.646 161.707 260.649 160.479 260.653H160.476C159.917 260.654 159.358 260.656 158.799 260.656C158.748 260.656 158.698 260.656 158.648 260.655L158.438 260.654C158.104 260.652 157.77 260.651 157.437 260.663C157.368 260.666 157.3 260.713 157.232 260.761L157.218 260.771L157.195 260.787L157.178 260.798L157.166 260.805C157.157 260.811 157.147 260.817 157.138 260.822C157.168 260.843 157.198 260.865 157.228 260.887L157.228 260.887C157.256 260.907 157.284 260.928 157.312 260.948L157.338 260.966C157.35 260.974 157.361 260.982 157.373 260.99C157.39 261.001 157.406 261.011 157.423 261.022C157.703 261.196 157.997 261.357 158.291 261.517L158.291 261.517C158.923 261.862 159.554 262.207 160.05 262.691C163.44 266 162.347 272.54 157.274 273.851C153.169 274.911 149.542 273.546 148.324 268.672C147.573 265.667 149.581 262.084 152.619 261.146C152.75 261.105 152.864 261.006 152.977 260.907C153.03 260.861 153.083 260.815 153.137 260.775C153.081 260.744 153.026 260.706 152.97 260.667C152.85 260.585 152.73 260.502 152.61 260.502C148.606 260.486 144.853 259.321 141.172 257.929C136.228 256.059 131.422 253.878 126.971 251L126.886 250.945C126.064 250.414 125.216 249.867 124.925 248.757C124.382 246.678 125.433 245.076 127.373 244.549C129.439 243.988 131.42 244.578 133.371 245.204C136.76 246.291 140.146 247.386 143.532 248.481C145.411 249.088 147.291 249.696 149.171 250.302L149.417 250.382L149.418 250.382C150.439 250.711 151.46 251.041 152.489 251.341C152.866 251.451 153.273 251.507 153.667 251.508C155.366 251.515 157.064 251.516 158.763 251.516H158.777C160.463 251.517 162.149 251.518 163.835 251.524C164.085 251.525 164.516 251.595 164.553 251.722C164.631 251.996 164.63 252.292 164.63 252.589C164.629 252.634 164.629 252.679 164.629 252.725C164.63 252.795 164.631 252.865 164.633 252.934C164.608 252.926 164.583 252.914 164.558 252.903C164.504 252.878 164.45 252.854 164.398 252.858C164.207 252.876 164.016 252.899 163.825 252.922L163.824 252.923C163.54 252.958 163.255 252.992 162.97 253.007C161.982 253.058 160.994 253.104 160.005 253.15L159.997 253.151C158.672 253.212 157.348 253.274 156.024 253.348C153.682 253.479 151.473 252.819 149.284 252.165L149.283 252.165L149.263 252.159C147.564 251.651 145.887 251.072 144.209 250.494L144.208 250.493C143.26 250.166 142.312 249.839 141.36 249.525C140.168 249.132 138.973 248.748 137.778 248.364C136.4 247.921 135.022 247.478 133.648 247.021C133.302 246.905 132.963 246.751 132.626 246.597C132.088 246.352 131.553 246.108 130.991 246.025C129.958 245.871 128.852 245.954 127.822 246.158C127.419 246.237 126.968 246.878 126.841 247.345C126.672 247.968 126.787 248.581 127.516 249.045C130.9 251.196 134.467 252.98 138.131 254.599C141.459 256.069 144.895 257.215 148.404 258.15C148.967 258.3 149.576 258.312 150.165 258.323C151.51 258.348 152.855 258.365 154.2 258.382C156.472 258.41 158.743 258.438 161.014 258.507C163.527 258.584 166.04 258.706 168.553 258.828C169.721 258.885 170.889 258.941 172.058 258.993C173.093 259.04 174.129 259.084 175.165 259.129C176.666 259.194 178.168 259.259 179.67 259.329C179.994 259.344 180.319 259.371 180.643 259.398C181.213 259.445 181.783 259.493 182.351 259.474C182.849 259.458 183.345 259.39 183.841 259.321H183.841H183.841H183.841H183.841H183.841H183.842H183.842L183.842 259.32C184.271 259.261 184.7 259.201 185.131 259.176C185.423 259.159 185.716 259.202 186.011 259.245L186.011 259.245C186.25 259.28 186.489 259.316 186.728 259.319C187.015 259.322 187.302 259.327 187.589 259.332H187.59H187.591H187.592C188.916 259.353 190.241 259.374 191.561 259.311C192.701 259.257 193.839 259.167 194.978 259.077H194.978H194.978H194.978H194.978H194.978H194.978H194.979C196.076 258.991 197.174 258.904 198.273 258.849C198.599 258.833 198.929 258.914 199.26 258.995L199.26 258.995C199.551 259.067 199.843 259.139 200.134 259.145C202.134 259.186 204.135 259.182 206.134 259.154C208.084 259.127 210.034 259.076 211.982 258.983C212.368 258.964 212.756 258.897 213.143 258.83C213.716 258.731 214.286 258.633 214.841 258.693C217.069 258.935 219.304 258.996 221.537 259.058H221.537H221.537H221.538H221.538H221.538H221.538H221.538C223.072 259.1 224.605 259.142 226.133 259.242C228.894 259.424 231.338 258.764 233.759 257.775C237.036 256.436 240.286 255.017 243.475 253.482C245.468 252.523 247.37 251.367 249.265 250.216L249.265 250.215L249.266 250.215L249.612 250.005C250.821 249.271 251.743 248.236 252.122 246.814C252.313 246.096 251.913 245.547 251.194 245.532C248.963 245.483 246.927 246.257 244.901 247.036C241.956 248.17 239.023 249.336 236.1 250.525C234.92 251.005 233.749 251.507 232.578 252.01L232.577 252.01L232.577 252.01L232.576 252.011L232.575 252.011L232.574 252.011L232.573 252.012L232.571 252.012L232.569 252.013L232.569 252.014L232.568 252.014L232.568 252.014L232.567 252.014L232.567 252.014C231.69 252.391 230.814 252.767 229.933 253.133C229.625 253.261 229.27 253.334 228.937 253.335C226.147 253.346 223.357 253.345 220.567 253.344L219.458 253.344L218.27 253.344L217.448 253.344L215.968 253.344H215.946C213.877 253.345 211.809 253.345 209.74 253.342C209.03 253.34 208.319 253.317 207.609 253.29C207.564 253.288 207.491 253.175 207.486 253.11C207.48 253.018 207.483 252.925 207.487 252.832C207.491 252.702 207.496 252.572 207.474 252.447C207.377 251.914 207.605 251.832 208.096 251.836C211.596 251.859 215.097 251.87 218.597 251.842C218.945 251.839 219.293 251.837 219.642 251.834C222.605 251.812 225.569 251.79 228.527 251.64C229.465 251.592 230.409 251.184 231.307 250.796L231.307 250.796C231.384 250.763 231.46 250.73 231.537 250.697C236.66 248.499 241.836 246.437 247.169 244.801C248.135 244.504 249.164 244.393 250.183 244.282H250.183C250.375 244.261 250.568 244.24 250.759 244.218C251.454 244.138 252.19 244.087 252.864 244.23C253.934 244.458 254.378 245.484 254.05 246.557C253.456 248.507 252.267 249.991 250.538 251.044C249.305 251.795 248.067 252.541 246.822 253.29C245.675 253.98 244.522 254.674 243.361 255.379C242.025 255.918 240.691 256.443 239.36 256.966L239.359 256.967ZM226.317 264.395C224.368 262.274 222.118 261.885 219.434 263.435C217.883 264.332 217.202 266.44 217.333 267.775C217.473 269.213 218.192 270.406 219.29 271.34C220.607 272.46 222.148 272.463 223.734 272.122C227.258 271.364 228.315 266.787 226.317 264.395ZM150.303 266.721C150.303 266.873 150.301 267.025 150.298 267.176C150.292 267.505 150.286 267.833 150.308 268.16C150.486 270.853 153.613 272.945 156.369 272.153C158.331 271.589 159.462 270.417 159.863 268.359C160.478 265.203 158.518 262.929 155.811 262.538C153.136 262.151 150.936 263.627 150.303 266.721ZM171.816 276.274L177.926 276.274H208.683L210.291 276.274L213.017 276.274C219.885 276.275 226.754 276.276 233.622 276.252C234.07 276.251 234.564 275.993 234.933 275.739C235.032 275.671 234.822 275.129 234.617 274.897C234.478 274.74 234.102 274.683 233.831 274.683C211.869 274.676 189.907 274.675 167.944 274.673C159.343 274.673 150.741 274.672 142.14 274.671C141.821 274.671 141.503 274.65 141.184 274.628L141.184 274.628C141.07 274.621 140.956 274.613 140.842 274.606C140.314 274.575 139.63 275.278 139.848 275.681C140.161 276.26 140.803 276.275 141.432 276.274C151.534 276.274 161.635 276.274 171.785 276.274H171.79H171.795H171.801H171.806H171.811H171.816ZM116.749 276.686L112.578 276.686C106.455 276.686 100.378 276.686 94.3006 276.684C94.2368 276.684 94.172 276.686 94.1072 276.688C93.6975 276.701 93.2888 276.715 93.1254 276.181C92.9361 275.563 93.1956 275.114 93.885 275.034C94.0158 275.018 94.1494 275.022 94.2829 275.026C94.3442 275.028 94.4055 275.03 94.4665 275.03L100.738 275.03H100.934C111.693 275.03 122.452 275.03 133.211 275.028C133.246 275.028 133.281 275.028 133.317 275.028C133.876 275.024 134.404 275.022 134.381 275.776C134.361 276.402 133.99 276.686 133.128 276.686C127.696 276.686 122.264 276.686 116.749 276.686ZM261.741 276.689L266.121 276.689C267.055 276.689 267.985 276.689 268.912 276.689C272.47 276.69 275.987 276.69 279.504 276.682C279.869 276.681 280.24 276.608 280.596 276.525C280.694 276.502 280.792 276.331 280.815 276.216C280.995 275.324 280.706 275.033 279.662 275.033L240.926 275.033C240.865 275.033 240.803 275.031 240.742 275.028C240.608 275.022 240.473 275.016 240.345 275.038C239.634 275.158 239.38 275.652 239.663 276.25C239.879 276.707 240.28 276.698 240.684 276.69L240.765 276.688C240.783 276.688 240.801 276.687 240.82 276.687C240.83 276.687 240.841 276.687 240.851 276.687C247.791 276.689 254.73 276.689 261.717 276.689H261.723H261.729H261.735H261.741ZM231.62 55.613C231.765 55.5981 232.446 55.7042 233.286 55.8349C234.435 56.0137 235.88 56.2386 236.655 56.2635C237.431 56.2885 236.694 57.1198 236.566 57.1253C234.853 57.198 231.141 56.067 231.62 55.613ZM234.121 62.1712C233.396 61.8966 233.743 59.6742 234.462 59.6742C235.173 59.6742 234.829 62.4393 234.121 62.1712ZM223.671 265.939C224.298 267.362 224.256 267.944 223.509 268.718C222.999 269.246 222.074 269.336 221.495 268.913C220.876 268.462 220.59 267.395 220.888 266.654C221.413 265.352 222.567 265.034 223.671 265.939ZM156.495 266.048C155.52 265.146 154.55 265.197 153.358 266.365C152.923 267.37 153.136 268.435 154.746 268.719C155.612 268.872 156.126 268.616 156.605 268.097C157.103 267.557 156.96 266.479 156.495 266.048Z" fill="#00160A"/>
<path fill-rule="evenodd" clip-rule="evenodd" d="M213.038 84.8282C211.589 84.4029 211.245 82.2053 209.783 81.8256C208.337 81.4501 206.948 83.1626 205.506 82.7716C204.526 82.5056 204.068 81.4231 203.525 80.5646C202.997 79.7294 201.884 78.9755 201.09 79.5146L201.024 79.5625C199.922 80.4314 198.269 79.8825 197.159 79.0232C196.049 78.164 195.108 77.0057 193.776 76.5637C194.475 75.8732 195.688 76.3742 196.365 77.0867C197.043 77.7991 197.594 78.7378 198.535 79.0228C199.977 79.4594 201.601 78.1203 202.962 78.7664C203.808 79.1682 204.152 80.1607 204.659 80.9484C205.166 81.7362 206.268 82.3965 206.988 81.7967C208.734 80.3409 211.854 81.2638 212.527 83.4349C212.722 84.0646 213.584 84.9885 213.038 84.8282Z" fill="#E7EAEE"/>
<path fill-rule="evenodd" clip-rule="evenodd" d="M126.6 249.835C130.626 252.206 143.237 259.193 152.482 259.425L228.948 259.666C228.948 259.666 269.155 245.525 239.758 250.861C238.094 251.163 233.329 254.013 225.668 254.634C211.663 255.769 152.482 255.043 152.482 255.043C152.482 255.043 125.541 249.211 126.6 249.835Z" fill="#E7EAEE"/>
<path fill-rule="evenodd" clip-rule="evenodd" d="M60.9307 202.792C61.0248 202.687 61.1391 202.613 61.21 202.642C62.0152 202.975 62.4797 202.686 62.7244 201.89C62.7649 201.758 62.9717 201.677 63.1017 201.572C63.2212 201.731 63.4414 201.891 63.4419 202.05C63.4436 202.581 63.6738 202.83 64.1777 202.988C64.3926 203.055 64.5197 203.399 64.6867 203.617C64.5185 203.656 64.2648 203.642 64.2 203.745C64.0685 203.954 63.9995 204.223 63.9797 204.474C63.9628 204.687 64.0695 204.906 64.0882 205.126C64.1127 205.414 64.0664 205.625 63.7269 205.335C63.049 204.755 62.4607 204.973 61.8817 205.519C61.7413 205.652 61.4943 205.673 61.2963 205.745C61.3325 205.565 61.3433 205.375 61.4092 205.206C61.7546 204.322 61.516 203.563 60.9307 202.792Z" fill="#FFB61D"/>
<circle cx="227.029" cy="67.608" r="2.92133" fill="#FFB61D"/>
<path fill-rule="evenodd" clip-rule="evenodd" d="M185.23 93.6107L185.566 94.1291L185.677 94.2966C186.381 95.3293 187.451 96.3446 188.64 96.0437C191.806 95.2427 195.407 96.6407 197.202 99.3674C198.089 100.716 200.061 100.451 201.672 100.106L201.884 100.059C203.5 99.7011 205.735 99.8696 206.143 101.436L206.165 101.526C206.353 102.427 207.488 102.702 208.422 102.678L208.712 102.667C211.061 102.667 211.369 103.959 211.369 103.826C211.369 103.826 206.204 103.435 205.117 101.683L205.051 101.572C204.358 100.359 202.61 100.556 201.243 100.969L200.866 101.086L200.678 101.141C199.343 101.515 197.722 101.651 197.052 100.499C195.515 97.8553 192.312 96.2846 189.279 96.6868C188.499 96.7903 187.689 97.0095 186.942 96.762C185.154 96.17 184.92 93.4093 183.161 92.7364C180.942 91.8872 178.793 95.1136 176.495 94.5045C177.892 93.4386 179.441 92.5719 181.081 91.9385C181.63 91.7262 182.214 91.5373 182.799 91.6082C183.882 91.7395 184.609 92.6704 185.23 93.6107ZM213.433 96.796C213.211 97.4783 213.048 98.0844 212.939 98.5987C212.714 97.1166 211.241 95.7461 209.852 96.2261L209.772 96.2558C208.891 96.6069 207.958 95.8781 207.388 95.1199L207.251 94.9354L207.046 94.6531C206.585 94.0238 206.089 93.4031 205.352 93.224C204.003 92.8963 202.812 94.2391 201.434 94.3993C198.243 94.7702 196.648 89.0583 193.516 89.7671C192.831 89.9221 192.238 90.3913 191.542 90.4864C189.622 90.7488 188.591 88.3064 186.972 87.2398C185.754 86.437 184.035 86.4856 182.864 87.3558C182.923 85.9611 184.82 85.3465 186.115 85.8712C187.41 86.396 188.299 87.5758 189.374 88.4675C190.422 89.3369 191.978 89.9341 193.12 89.2266L193.207 89.1696C194.58 88.219 196.417 89.4248 197.489 90.7053L197.879 91.1718C198.858 92.337 199.977 93.5476 201.444 93.4359C202.792 93.3332 203.939 92.0776 205.276 92.2784C207.224 92.571 208.02 95.7101 209.978 95.4976C211.237 95.3611 212.546 95.7837 213.487 96.6303L213.433 96.796ZM214.444 90.228C214.129 90.6684 213.814 91.0222 213.498 91.2894L213.393 91.3752L213.129 91.1869C211.848 90.2771 210.45 89.3917 208.893 89.4284C208.324 89.4418 207.741 89.5791 207.195 89.4189C205.746 88.9935 205.402 86.7959 203.941 86.4163C202.495 86.0408 201.105 87.7532 199.664 87.3622C198.683 87.0963 198.225 86.0137 197.682 85.1553C197.154 84.3201 196.042 83.5662 195.247 84.1052L195.182 84.1532C194.08 85.0221 192.427 84.4732 191.317 83.6139C190.207 82.7546 189.266 81.5964 187.933 81.1543C188.633 80.4639 189.845 80.9649 190.522 81.6773C191.2 82.3898 191.751 83.3285 192.692 83.6134C194.134 84.0501 195.758 82.711 197.119 83.3571C197.966 83.7588 198.31 84.7513 198.816 85.5391C199.323 86.3269 200.426 86.9871 201.145 86.3874C202.891 84.9316 206.011 85.8544 206.684 88.0255C206.879 88.6552 207.718 88.8018 208.365 88.6753C209.013 88.5488 209.678 88.2665 210.307 88.4647C211.107 88.7168 211.517 89.6472 212.288 89.978C213.09 90.3222 214.049 89.8846 214.585 89.1919L214.639 89.1193C215.071 88.5148 214.869 89.6327 214.444 90.228Z" fill="#FFB61D"/>
<path fill-rule="evenodd" clip-rule="evenodd" d="M197.641 106.785L197.883 106.856C198.206 106.955 198.45 107.101 198.734 107.341L198.874 107.464L199.053 107.627C199.139 107.705 199.207 107.764 199.276 107.821C199.749 108.209 200.285 108.449 201.179 108.591C201.778 108.687 202.201 108.591 202.93 108.252L203.192 108.126C204.37 107.558 205.054 107.4 206.158 107.653C207.102 107.87 207.535 108.235 207.887 108.922L207.976 109.105C208.145 109.456 208.688 109.782 209.118 110.038C209.439 110.231 209.697 110.385 209.684 110.482C209.653 110.711 207.662 110.342 207.266 109.551L207.18 109.374C206.922 108.843 206.687 108.631 205.971 108.467C205.132 108.274 204.623 108.375 203.685 108.816L203.423 108.942C202.472 109.399 201.889 109.549 201.048 109.416C200.007 109.25 199.334 108.948 198.747 108.466C198.706 108.433 198.666 108.399 198.625 108.363L198.275 108.048C198.03 107.83 197.864 107.723 197.639 107.654L197.501 107.613C196.918 107.442 195.585 107.885 194.613 108.207L194.613 108.207L194.613 108.207C194.004 108.41 193.537 108.565 193.486 108.492C193.377 108.334 196.481 106.473 197.641 106.785ZM197.499 113.128L197.723 113.19C198.023 113.277 198.249 113.405 198.512 113.617L198.642 113.725L198.808 113.868C198.888 113.937 198.951 113.989 199.015 114.039C199.453 114.379 199.95 114.591 200.779 114.715C201.335 114.799 201.727 114.715 202.403 114.417L202.646 114.307C203.738 113.807 204.373 113.668 205.397 113.891C206.272 114.082 206.674 114.403 207 115.006L207.083 115.166C207.239 115.476 207.743 115.762 208.141 115.987C208.44 116.156 208.678 116.291 208.666 116.377C208.638 116.578 206.791 116.254 206.424 115.559L206.344 115.403C206.106 114.937 205.888 114.751 205.224 114.606C204.445 114.437 203.973 114.525 203.104 114.913L202.86 115.023C201.978 115.425 201.438 115.557 200.658 115.44C199.693 115.295 199.069 115.029 198.524 114.606C198.486 114.576 198.449 114.547 198.411 114.515L198.087 114.238C197.86 114.046 197.705 113.952 197.497 113.892L197.368 113.855C196.828 113.705 195.592 114.094 194.691 114.378L194.691 114.378C194.126 114.556 193.692 114.692 193.645 114.628C193.544 114.49 196.423 112.854 197.499 113.128ZM197.913 119.868L197.702 119.806C196.686 119.531 193.967 121.167 194.062 121.305C194.107 121.37 194.516 121.233 195.05 121.055C195.901 120.772 197.069 120.383 197.579 120.533L197.7 120.569C197.897 120.63 198.043 120.724 198.257 120.916L198.563 121.192C198.6 121.224 198.634 121.254 198.67 121.283C199.185 121.706 199.774 121.972 200.685 122.117C201.422 122.235 201.932 122.102 202.766 121.701L202.995 121.59C203.816 121.203 204.262 121.114 204.998 121.284C205.625 121.428 205.831 121.614 206.056 122.081L206.131 122.236C206.478 122.931 208.222 123.255 208.249 123.055C208.26 122.969 208.035 122.833 207.753 122.664C207.377 122.439 206.901 122.153 206.754 121.844L206.676 121.684C206.367 121.08 205.988 120.759 205.161 120.569C204.194 120.346 203.595 120.485 202.563 120.984L202.334 121.094C201.695 121.393 201.325 121.476 200.8 121.393C200.017 121.268 199.548 121.057 199.133 120.716C199.073 120.666 199.014 120.614 198.938 120.545L198.782 120.403L198.659 120.294C198.41 120.083 198.197 119.955 197.913 119.868ZM197.702 127.735L197.913 127.797C198.197 127.884 198.41 128.012 198.659 128.223L198.782 128.332L198.938 128.475C199.014 128.544 199.073 128.595 199.133 128.645C199.548 128.986 200.017 129.197 200.8 129.322C201.325 129.406 201.695 129.322 202.334 129.024L202.563 128.913C203.595 128.414 204.194 128.275 205.161 128.498C205.988 128.689 206.367 129.009 206.676 129.613L206.754 129.773C206.901 130.082 207.377 130.368 207.753 130.594C208.035 130.763 208.26 130.898 208.249 130.984C208.222 131.185 206.478 130.86 206.131 130.166L206.056 130.01C205.831 129.544 205.625 129.357 204.998 129.213C204.262 129.043 203.816 129.132 202.995 129.519L202.766 129.63C201.932 130.032 201.422 130.164 200.685 130.047C199.774 129.901 199.185 129.636 198.67 129.212C198.634 129.183 198.6 129.154 198.563 129.122L198.257 128.845C198.043 128.653 197.897 128.559 197.7 128.499L197.579 128.462C197.069 128.312 195.901 128.701 195.05 128.985C194.516 129.163 194.107 129.299 194.062 129.235C193.967 129.096 196.686 127.461 197.702 127.735ZM198.557 135.726L198.333 135.664C197.257 135.39 194.379 137.026 194.48 137.164C194.527 137.228 194.96 137.092 195.525 136.914C196.427 136.63 197.663 136.241 198.203 136.391L198.331 136.428C198.54 136.488 198.694 136.582 198.922 136.774L199.245 137.051C199.284 137.083 199.321 137.112 199.359 137.142C199.903 137.565 200.528 137.831 201.492 137.976C202.273 138.093 202.813 137.961 203.695 137.559L203.938 137.449C204.808 137.061 205.28 136.973 206.058 137.142C206.722 137.287 206.94 137.473 207.179 137.939L207.259 138.095C207.626 138.79 209.472 139.114 209.501 138.913C209.513 138.827 209.274 138.692 208.976 138.523C208.578 138.298 208.074 138.012 207.918 137.702L207.835 137.542C207.508 136.939 207.106 136.618 206.232 136.427C205.208 136.204 204.573 136.343 203.481 136.843L203.238 136.953C202.562 137.251 202.17 137.335 201.614 137.252C200.785 137.127 200.288 136.915 199.849 136.575C199.785 136.525 199.723 136.473 199.642 136.404L199.477 136.261L199.347 136.153C199.083 135.941 198.857 135.813 198.557 135.726ZM200.608 143.001L200.84 143.024C201.15 143.057 201.395 143.144 201.691 143.306L201.838 143.391L202.026 143.502C202.117 143.556 202.188 143.597 202.259 143.635C202.751 143.894 203.277 144.016 204.115 143.995C204.677 143.981 205.048 143.83 205.662 143.419L205.882 143.268C206.871 142.587 207.472 142.339 208.519 142.381C209.414 142.417 209.865 142.663 210.292 143.201L210.401 143.344C210.608 143.622 211.155 143.816 211.586 143.969C211.909 144.083 212.168 144.175 212.17 144.262C212.177 144.464 210.302 144.466 209.82 143.845L209.715 143.706C209.399 143.288 209.152 143.142 208.473 143.115C207.677 143.084 207.227 143.253 206.438 143.785L206.218 143.937C205.419 144.485 204.91 144.709 204.121 144.729C203.146 144.754 202.485 144.601 201.875 144.278L201.747 144.209L201.38 143.992C201.123 143.843 200.955 143.777 200.739 143.754L200.606 143.74C200.048 143.686 198.898 144.284 198.06 144.72C197.534 144.993 197.131 145.203 197.074 145.148C196.95 145.029 199.501 142.918 200.608 143.001ZM205.873 148.405L205.688 148.423C204.803 148.527 203.043 150.472 203.155 150.542C203.207 150.574 203.5 150.359 203.883 150.078C204.492 149.63 205.328 149.015 205.775 148.972L205.882 148.962C206.055 148.947 206.196 148.971 206.418 149.043L206.734 149.149L206.843 149.182C207.364 149.33 207.904 149.346 208.672 149.182C209.293 149.05 209.668 148.808 210.232 148.282L210.388 148.137C210.947 147.624 211.282 147.431 211.914 147.336C212.454 147.255 212.667 147.327 212.967 147.59L213.067 147.677C213.523 148.066 215.004 147.786 214.975 147.636C214.962 147.572 214.746 147.543 214.477 147.506H214.477L214.477 147.506L214.477 147.506C214.118 147.456 213.663 147.394 213.465 147.219L213.362 147.129C212.96 146.794 212.573 146.678 211.862 146.785C211.03 146.91 210.585 147.183 209.886 147.836L209.73 147.98C209.295 148.377 209.02 148.544 208.578 148.638C207.918 148.779 207.488 148.766 207.069 148.647C207.007 148.63 206.947 148.61 206.868 148.584L206.706 148.529L206.58 148.488C206.327 148.412 206.123 148.384 205.873 148.405ZM210.278 152.179L210.464 152.161C210.713 152.14 210.917 152.168 211.171 152.244L211.297 152.285L211.459 152.34C211.537 152.366 211.598 152.386 211.659 152.403C212.079 152.522 212.509 152.535 213.169 152.394C213.611 152.3 213.886 152.133 214.321 151.736L214.477 151.592C215.176 150.939 215.621 150.666 216.453 150.541C217.164 150.434 217.55 150.55 217.952 150.885L218.056 150.975C218.254 151.15 218.709 151.212 219.068 151.262L219.068 151.262L219.068 151.262H219.068C219.337 151.299 219.552 151.328 219.565 151.392C219.595 151.542 218.114 151.822 217.658 151.433L217.558 151.346C217.257 151.083 217.045 151.011 216.505 151.092C215.872 151.187 215.538 151.38 214.979 151.893L214.823 152.038C214.258 152.564 213.883 152.806 213.263 152.938C212.495 153.102 211.954 153.086 211.433 152.938L211.324 152.905L211.008 152.799C210.787 152.727 210.646 152.703 210.473 152.718L210.366 152.728C209.919 152.771 209.083 153.386 208.473 153.834C208.091 154.115 207.798 154.33 207.746 154.298C207.634 154.228 209.393 152.283 210.278 152.179ZM216.339 156.222L216.193 156.262C215.501 156.47 214.368 158.273 214.468 158.313C214.514 158.331 214.718 158.118 214.984 157.839C215.408 157.395 215.989 156.786 216.341 156.688L216.425 156.666C216.561 156.629 216.677 156.628 216.864 156.655L217.132 156.695L217.224 156.706C217.661 156.751 218.095 156.687 218.686 156.448C219.164 156.255 219.429 156.009 219.807 155.508L219.911 155.371C220.285 154.882 220.525 154.681 221.018 154.516C221.438 154.375 221.618 154.402 221.895 154.57L221.988 154.626C222.407 154.872 223.551 154.439 223.507 154.324C223.487 154.275 223.311 154.282 223.091 154.29C222.796 154.301 222.424 154.315 222.241 154.203L222.146 154.146C221.777 153.934 221.452 153.897 220.898 154.082C220.251 154.299 219.934 154.58 219.467 155.201L219.363 155.338C219.071 155.717 218.874 155.889 218.534 156.027C218.027 156.232 217.681 156.283 217.329 156.247C217.277 156.241 217.226 156.234 217.16 156.224L217.023 156.203L216.916 156.189C216.703 156.163 216.536 156.17 216.339 156.222ZM220.832 159.634L220.977 159.594C221.174 159.541 221.341 159.535 221.554 159.56L221.661 159.575L221.798 159.596C221.865 159.606 221.916 159.613 221.967 159.619C222.319 159.655 222.665 159.604 223.173 159.399C223.513 159.261 223.709 159.089 224.001 158.71L224.106 158.573C224.572 157.952 224.889 157.671 225.537 157.454C226.09 157.269 226.416 157.306 226.784 157.518L226.88 157.575C227.062 157.687 227.435 157.673 227.729 157.662C227.949 157.653 228.126 157.647 228.145 157.696C228.19 157.811 227.045 158.244 226.626 157.998L226.534 157.942C226.256 157.774 226.076 157.747 225.656 157.888C225.164 158.053 224.923 158.254 224.549 158.742L224.445 158.88C224.068 159.381 223.802 159.627 223.324 159.82C222.734 160.059 222.3 160.123 221.862 160.078L221.77 160.067L221.503 160.027C221.316 160 221.199 160.001 221.063 160.038L220.979 160.06C220.628 160.158 220.046 160.767 219.622 161.211C219.356 161.49 219.152 161.703 219.106 161.685C219.007 161.645 220.139 159.841 220.832 159.634ZM226.403 162.932L226.257 162.973C225.564 163.18 224.432 164.984 224.531 165.024C224.578 165.042 224.781 164.828 225.047 164.55C225.471 164.106 226.053 163.496 226.405 163.399L226.488 163.376C226.625 163.34 226.741 163.339 226.928 163.366L227.196 163.406L227.287 163.417C227.725 163.462 228.159 163.398 228.75 163.159C229.227 162.966 229.493 162.719 229.87 162.219L229.974 162.081C230.349 161.593 230.589 161.391 231.082 161.226C231.502 161.086 231.682 161.112 231.959 161.28L232.051 161.336C232.471 161.582 233.615 161.15 233.57 161.035C233.551 160.985 233.375 160.992 233.154 161C232.86 161.012 232.488 161.026 232.305 160.914L232.21 160.857C231.841 160.645 231.516 160.607 230.962 160.793C230.315 161.01 229.997 161.291 229.531 161.911L229.427 162.049C229.135 162.427 228.938 162.6 228.598 162.737C228.091 162.942 227.745 162.993 227.393 162.957C227.341 162.952 227.29 162.945 227.224 162.935L227.086 162.914L226.98 162.899C226.766 162.874 226.599 162.88 226.403 162.932Z" fill="#FFB61D"/>
</svg>
