<svg width="14" height="12" viewBox="0 0 14 12" fill="none" xmlns="http://www.w3.org/2000/svg">
<g clip-path="url(#clip0_5_67)">
<path fill-rule="evenodd" clip-rule="evenodd" d="M0.00646973 5.82853C0.00646973 5.62015 0.0933923 5.42031 0.248115 5.27296C0.402838 5.12562 0.612687 5.04284 0.831499 5.04284H10.3903L6.84761 1.67067C6.69269 1.52314 6.60566 1.32304 6.60566 1.1144C6.60566 0.905759 6.69269 0.705663 6.84761 0.558132C7.00253 0.410601 7.21264 0.327719 7.43173 0.327719C7.65082 0.327719 7.86093 0.410601 8.01585 0.558132L12.966 5.27226C13.0429 5.34524 13.1038 5.43194 13.1454 5.5274C13.187 5.62285 13.2084 5.72518 13.2084 5.82853C13.2084 5.93187 13.187 6.0342 13.1454 6.12965C13.1038 6.22511 13.0429 6.31181 12.966 6.38479L8.01585 11.0989C7.86093 11.2464 7.65082 11.3293 7.43173 11.3293C7.21264 11.3293 7.00253 11.2464 6.84761 11.0989C6.69269 10.9514 6.60566 10.7513 6.60566 10.5427C6.60566 10.334 6.69269 10.1339 6.84761 9.98638L10.3903 6.61421H0.831499C0.612687 6.61421 0.402838 6.53144 0.248115 6.38409C0.0933923 6.23675 0.00646973 6.0369 0.00646973 5.82853Z" fill="white"/>
</g>
<defs>
<clipPath id="clip0_5_67">
<rect width="13.2019" height="11.0016" fill="white" transform="translate(0.00646973 0.327719)"/>
</clipPath>
</defs>
</svg>
