<svg width="174" height="169" viewBox="0 0 174 169" fill="none" xmlns="http://www.w3.org/2000/svg">
<path d="M87.0001 52H162.711M19.7018 35.6666L57.5571 101M78.5878 166.332L116.443 100.998M87.0001 52C68.4162 52 53.3509 66.6253 53.3509 84.6666C53.3509 102.708 68.4162 117.333 87.0001 117.333C105.584 117.333 120.649 102.708 120.649 84.6666C120.649 66.6253 105.584 52 87.0001 52ZM171.123 84.6666C171.123 129.769 133.459 166.333 87.0001 166.333C40.5403 166.333 2.87726 129.769 2.87726 84.6666C2.87726 39.5634 40.5403 2.99997 87.0001 2.99997C133.459 2.99997 171.123 39.5634 171.123 84.6666Z" stroke="#898989" stroke-width="4.2" stroke-linecap="round" stroke-linejoin="round"/>
</svg>
