<svg width="202" height="197" viewBox="0 0 202 197" fill="none" xmlns="http://www.w3.org/2000/svg">
<path d="M55.1148 104.884V112.539C55.1148 124.371 50.7134 135.718 42.8788 144.084H104.059C96.2243 135.718 91.823 124.371 91.823 112.539V104.884M24.5247 104.884H122.413C129.171 104.884 134.649 99.0343 134.649 91.8176V26.4842C134.649 19.2677 129.171 13.4176 122.413 13.4176H24.5247C17.7669 13.4176 12.2887 19.2677 12.2887 26.4842V91.8176C12.2887 99.0343 17.7669 104.884 24.5247 104.884Z" stroke="#898989" stroke-width="4.2" stroke-linecap="round" stroke-linejoin="round"/>
<path d="M159.121 59.1509H97.941C94.5621 59.1509 91.8229 62.076 91.8229 65.6842V176.751C91.8229 180.359 94.5621 183.284 97.941 183.284H159.121C162.5 183.284 165.239 180.359 165.239 176.751V65.6842C165.239 62.076 162.5 59.1509 159.121 59.1509Z" stroke="#898989" stroke-width="4.2" stroke-linecap="round" stroke-linejoin="round"/>
<path d="M128.63 157.256L128.531 157.151" stroke="#898989" stroke-width="4.2" stroke-linecap="round" stroke-linejoin="round"/>
</svg>
