<svg width="35" height="34" viewBox="0 0 35 34" fill="none" xmlns="http://www.w3.org/2000/svg">
<path d="M17.5367 33.0117H17.4632C8.27539 33.0117 0.800293 25.6238 0.800293 16.5431V16.4705C0.800293 7.38985 8.27539 0.00195312 17.4632 0.00195312H17.5367C26.7246 0.00195312 34.1997 7.38985 34.1997 16.4705V16.5431C34.1997 25.6238 26.7246 33.0117 17.5367 33.0117ZM17.4632 1.1193C8.89831 1.1193 1.93083 8.00551 1.93083 16.4705V16.5431C1.93083 25.0081 8.89831 31.8943 17.4632 31.8943H17.5367C26.1017 31.8943 33.0692 25.0081 33.0692 16.5431V16.4705C33.0692 8.00551 26.1017 1.1193 17.5367 1.1193H17.4632Z" fill="#383D38"/>
<path d="M19.7468 12.8055V16.2793H24.0949L23.4064 20.9588H19.7468V31.74C19.0131 31.8406 18.2624 31.8931 17.5004 31.8931C16.6209 31.8931 15.7572 31.8238 14.916 31.6897V20.9588H10.906V16.2793H14.916V12.0289C14.916 9.39201 17.0788 7.25342 19.748 7.25342V7.25565C19.7559 7.25565 19.7626 7.25342 19.7706 7.25342H24.096V11.3004H21.2697C20.4297 11.3004 19.748 11.9742 19.748 12.8044L19.7468 12.8055Z" fill="#383D38"/>
</svg>
