<svg width="33" height="31" viewBox="0 0 33 31" fill="none" xmlns="http://www.w3.org/2000/svg">
<path d="M16.5522 31.01H16.4832C7.85156 31.01 0.828979 24.0697 0.828979 15.5391V15.4709C0.828979 6.94034 7.85156 0 16.4832 0H16.5522C25.1839 0 32.2064 6.94034 32.2064 15.4709V15.5391C32.2064 24.0697 25.1839 31.01 16.5522 31.01ZM16.4832 1.04966C8.43677 1.04966 1.89107 7.5187 1.89107 15.4709V15.5391C1.89107 23.4913 8.43677 29.9603 16.4832 29.9603H16.5522C24.5986 29.9603 31.1444 23.4913 31.1444 15.5391V15.4709C31.1444 7.5187 24.5986 1.04966 16.5522 1.04966H16.4832Z" fill="#383D38"/>
<path d="M8.58965 10.483C8.1903 10.1167 7.9917 9.66321 7.9917 9.12369C7.9917 8.58417 8.19136 8.11076 8.58965 7.74338C8.98899 7.37705 9.50305 7.19336 10.1329 7.19336C10.7627 7.19336 11.2566 7.37705 11.6549 7.74338C12.0542 8.10971 12.2528 8.57052 12.2528 9.12369C12.2528 9.67686 12.0531 10.1167 11.6549 10.483C11.2555 10.8493 10.7489 11.033 10.1329 11.033C9.51686 11.033 8.98899 10.8493 8.58965 10.483ZM11.9172 12.5844V23.8157H8.32625V12.5844H11.9172Z" fill="#383D38"/>
<path d="M23.871 13.6939C24.6538 14.5336 25.0446 15.6862 25.0446 17.1536V23.6174H21.6343V17.6091C21.6343 16.8691 21.4399 16.2939 21.0522 15.8846C20.6646 15.4752 20.142 15.2694 19.4878 15.2694C18.8335 15.2694 18.3109 15.4741 17.9233 15.8846C17.5356 16.2939 17.3412 16.8691 17.3412 17.6091V23.6174H13.9107V12.553H17.3412V14.0204C17.6886 13.5312 18.157 13.1449 18.7454 12.8605C19.3338 12.576 19.9954 12.4343 20.7315 12.4343C22.0421 12.4343 23.0893 12.8542 23.871 13.6939Z" fill="#383D38"/>
</svg>
