<svg width="33" height="31" viewBox="0 0 33 31" fill="none" xmlns="http://www.w3.org/2000/svg">
<path d="M16.5809 31.01H16.5119C7.88024 31.01 0.857666 24.0697 0.857666 15.5391V15.4709C0.857666 6.94032 7.88024 0 16.5119 0H16.5809C25.2126 0 32.2351 6.94032 32.2351 15.4709V15.5391C32.2351 24.0697 25.2126 31.01 16.5809 31.01ZM16.5119 1.04966C8.46545 1.04966 1.91976 7.51868 1.91976 15.4709V15.5391C1.91976 23.4913 8.46545 29.9603 16.5119 29.9603H16.5809C24.6273 29.9603 31.173 23.4913 31.173 15.5391V15.4709C31.173 7.51868 24.6273 1.04966 16.5809 1.04966H16.5119Z" fill="#383D38"/>
<path d="M7.53726 7.30786L14.528 16.5448L7.49371 24.0551H9.0773L15.2364 17.4801L20.2123 24.0551H25.6003L18.2166 14.2986L24.7644 7.30786H23.1808L17.5093 13.3634L12.9263 7.30786H7.53831H7.53726ZM9.86537 8.46041H12.3401L23.2701 22.9026H20.7954L9.86537 8.46041Z" fill="#383D38"/>
</svg>
