<svg xmlns="http://www.w3.org/2000/svg" version="1.1" xmlns:xlink="http://www.w3.org/1999/xlink" xmlns:svgjs="http://svgjs.dev/svgjs" width="1500" height="1500" viewBox="0 0 1500 1500"><rect width="1500" height="1500" fill="#ffffff"></rect><g transform="matrix(0.6666666666666666,0,0,0.6666666666666666,249.39393939393938,438.5856950067477)"><svg viewBox="0 0 396 247" data-background-color="#ffffff" preserveAspectRatio="xMidYMid meet" height="935" width="1500" xmlns="http://www.w3.org/2000/svg" xmlns:xlink="http://www.w3.org/1999/xlink"><g id="tight-bounds" transform="matrix(1,0,0,1,0.2400000000000091,-0.09999999999999432)"><svg viewBox="0 0 395.52 247.2" height="247.2" width="395.52"><g><svg></svg></g><g><svg viewBox="0 0 395.52 247.2" height="247.2" width="395.52"><g transform="matrix(1,0,0,1,75.54432,104.05643044854702)"><svg viewBox="0 0 244.43135999999998 39.087139102905944" height="39.087139102905944" width="244.43135999999998"><g><svg viewBox="0 0 244.43135999999998 39.087139102905944" height="39.087139102905944" width="244.43135999999998"><g><svg viewBox="0 0 300.4106905030007 48.0388214003752" height="39.087139102905944" width="244.43135999999998"><g transform="matrix(1,0,0,1,55.979330503000696,7.307697811823747)"><svg viewBox="0 0 244.43135999999998 33.423425776727704" height="33.423425776727704" width="244.43135999999998"><g id="textblocktransform"><svg viewBox="0 0 244.43135999999998 33.423425776727704" height="33.423425776727704" width="244.43135999999998" id="textblock"><g><svg viewBox="0 0 244.43135999999998 33.423425776727704" height="33.423425776727704" width="244.43135999999998"><g transform="matrix(1,0,0,1,0,0)"><svg width="244.43135999999998" viewBox="4 -36.3 338.57 46.3" height="33.423425776727704" data-palette-color="#001ec0"><path d="M4 0L4-34.1 12.45-34.1Q17.7-34.1 21.5-32.08 25.3-30.05 27.3-26.2 29.3-22.35 29.3-17L29.3-17Q29.3-9 24.85-4.5 20.4 0 12.45 0L12.45 0 4 0ZM7.75-3.4L12.35-3.4Q18.45-3.4 21.9-6.75 25.35-10.1 25.35-17L25.35-17Q25.35-23.95 21.9-27.3 18.45-30.65 12.35-30.65L12.35-30.65 7.75-30.65 7.75-3.4ZM45.3-24.2Q48.45-24.2 51-22.65 53.55-21.1 55-18.43 56.45-15.75 56.45-12.45L56.45-12.45Q56.45-11.5 56.4-11L56.4-11 37.15-11Q37.35-7.4 39.5-4.85 41.65-2.3 45.35-2.3L45.35-2.3Q48.35-2.3 50.32-3.43 52.3-4.55 53.5-6.55L53.5-6.55 56.2-4.75Q54.55-2.15 51.85-0.68 49.15 0.8 45.45 0.8L45.45 0.8Q42.05 0.8 39.4-0.8 36.75-2.4 35.25-5.25 33.75-8.1 33.75-11.7L33.75-11.7Q33.75-15.3 35.22-18.15 36.7-21 39.32-22.6 41.95-24.2 45.3-24.2L45.3-24.2ZM37.35-13.8L53.05-13.8Q52.55-17.45 50.6-19.28 48.65-21.1 45.3-21.1L45.3-21.1Q42.05-21.1 39.97-19.03 37.9-16.95 37.35-13.8L37.35-13.8ZM68.8-3.65L75.6-23.4 79.05-23.4 70.55 0 66.8 0 58.35-23.4 61.9-23.4 68.8-3.65ZM100.59-4.2L113.09-34.1 117.29-34.1 117.29 0 113.59 0 113.59-27.25 102.19 0 98.69 0 87.79-27.15 87.79 0 84.04 0 84.04-34.1 88.64-34.1 100.59-4.2ZM142.79-23.4L146.19-23.4 146.19 0 142.79 0 142.79-3.45Q141.34-1.45 139.24-0.33 137.14 0.8 134.64 0.8L134.64 0.8Q131.29 0.8 128.64-0.8 125.99-2.4 124.49-5.25 122.99-8.1 122.99-11.75L122.99-11.75Q122.99-15.35 124.47-18.18 125.94-21 128.57-22.6 131.19-24.2 134.54-24.2L134.54-24.2Q137.09-24.2 139.22-23.08 141.34-21.95 142.79-19.9L142.79-19.9 142.79-23.4ZM134.54-2.3Q136.94-2.3 138.82-3.5 140.69-4.7 141.74-6.85 142.79-9 142.79-11.7L142.79-11.7Q142.79-14.4 141.74-16.55 140.69-18.7 138.82-19.9 136.94-21.1 134.54-21.1L134.54-21.1Q132.19-21.1 130.34-19.9 128.49-18.7 127.44-16.57 126.39-14.45 126.39-11.75L126.39-11.75Q126.39-9 127.44-6.85 128.49-4.7 130.34-3.5 132.19-2.3 134.54-2.3L134.54-2.3ZM163.99-24.2Q165.19-24.2 166.29-23.85L166.29-23.85 166.29-20.75Q165.24-21.25 163.99-21.25L163.99-21.25Q161.84-21.25 159.99-20.05 158.14-18.85 157.01-16.57 155.89-14.3 155.89-11.2L155.89-11.2 155.89 0 152.49 0 152.49-23.4 155.89-23.4 155.89-18.7Q157.24-21.3 159.31-22.75 161.39-24.2 163.99-24.2L163.99-24.2ZM187.69 0L183.89 0 175.69-12.05 172.84-9.3 172.84 0 169.44 0 169.44-36.3 172.84-36.3 172.84-13.6 183.09-23.4 187.49-23.4 178.04-14.3 187.69 0ZM201.33-24.2Q204.48-24.2 207.03-22.65 209.58-21.1 211.03-18.43 212.48-15.75 212.48-12.45L212.48-12.45Q212.48-11.5 212.43-11L212.43-11 193.18-11Q193.38-7.4 195.53-4.85 197.68-2.3 201.38-2.3L201.38-2.3Q204.38-2.3 206.36-3.43 208.33-4.55 209.53-6.55L209.53-6.55 212.23-4.75Q210.58-2.15 207.88-0.68 205.18 0.8 201.48 0.8L201.48 0.8Q198.08 0.8 195.43-0.8 192.78-2.4 191.28-5.25 189.78-8.1 189.78-11.7L189.78-11.7Q189.78-15.3 191.26-18.15 192.73-21 195.36-22.6 197.98-24.2 201.33-24.2L201.33-24.2ZM193.38-13.8L209.08-13.8Q208.58-17.45 206.63-19.28 204.68-21.1 201.33-21.1L201.33-21.1Q198.08-21.1 196.01-19.03 193.93-16.95 193.38-13.8L193.38-13.8ZM222.13 0L218.73 0 218.73-20.3 214.73-20.3 214.73-23.4 218.73-23.4 218.73-31.15 222.13-31.15 222.13-23.4 227.53-23.4 227.53-20.3 222.13-20.3 222.13 0ZM242.83-24.2Q246.18-24.2 248.83-22.6 251.48-21 252.98-18.15 254.48-15.3 254.48-11.65L254.48-11.65Q254.48-8.05 253-5.23 251.53-2.4 248.9-0.8 246.28 0.8 242.93 0.8L242.93 0.8Q240.38 0.8 238.25-0.33 236.13-1.45 234.68-3.5L234.68-3.5 234.68 10 231.28 10 231.28-23.4 234.68-23.4 234.68-19.95Q236.13-21.95 238.23-23.08 240.33-24.2 242.83-24.2L242.83-24.2ZM242.93-2.3Q245.28-2.3 247.13-3.5 248.98-4.7 250.03-6.83 251.08-8.95 251.08-11.65L251.08-11.65Q251.08-14.4 250.03-16.55 248.98-18.7 247.13-19.9 245.28-21.1 242.93-21.1L242.93-21.1Q240.53-21.1 238.65-19.9 236.78-18.7 235.73-16.55 234.68-14.4 234.68-11.7L234.68-11.7Q234.68-9 235.73-6.85 236.78-4.7 238.65-3.5 240.53-2.3 242.93-2.3L242.93-2.3ZM262.93 0L259.53 0 259.53-36.3 262.93-36.3 262.93 0ZM287.77-23.4L291.17-23.4 291.17 0 287.77 0 287.77-3.45Q286.32-1.45 284.22-0.33 282.12 0.8 279.62 0.8L279.62 0.8Q276.27 0.8 273.62-0.8 270.97-2.4 269.47-5.25 267.97-8.1 267.97-11.75L267.97-11.75Q267.97-15.35 269.45-18.18 270.92-21 273.55-22.6 276.17-24.2 279.52-24.2L279.52-24.2Q282.07-24.2 284.2-23.08 286.32-21.95 287.77-19.9L287.77-19.9 287.77-23.4ZM279.52-2.3Q281.92-2.3 283.8-3.5 285.67-4.7 286.72-6.85 287.77-9 287.77-11.7L287.77-11.7Q287.77-14.4 286.72-16.55 285.67-18.7 283.8-19.9 281.92-21.1 279.52-21.1L279.52-21.1Q277.17-21.1 275.32-19.9 273.47-18.7 272.42-16.57 271.37-14.45 271.37-11.75L271.37-11.75Q271.37-9 272.42-6.85 273.47-4.7 275.32-3.5 277.17-2.3 279.52-2.3L279.52-2.3ZM307.62 0.8Q304.22 0.8 301.57-0.8 298.92-2.4 297.42-5.25 295.92-8.1 295.92-11.7L295.92-11.7Q295.92-15.3 297.4-18.15 298.87-21 301.52-22.6 304.17-24.2 307.52-24.2L307.52-24.2Q310.37-24.2 312.5-22.98 314.62-21.75 316.37-19.5L316.37-19.5 313.87-17.55Q311.42-21.1 307.52-21.1L307.52-21.1Q305.17-21.1 303.3-19.9 301.42-18.7 300.37-16.55 299.32-14.4 299.32-11.7L299.32-11.7Q299.32-9 300.37-6.85 301.42-4.7 303.3-3.5 305.17-2.3 307.52-2.3L307.52-2.3Q309.92-2.3 311.47-3.13 313.02-3.95 314.27-5.55L314.27-5.55 316.92-3.7Q315.27-1.65 312.85-0.43 310.42 0.8 307.62 0.8L307.62 0.8ZM331.42-24.2Q334.57-24.2 337.12-22.65 339.67-21.1 341.12-18.43 342.57-15.75 342.57-12.45L342.57-12.45Q342.57-11.5 342.52-11L342.52-11 323.27-11Q323.47-7.4 325.62-4.85 327.77-2.3 331.47-2.3L331.47-2.3Q334.47-2.3 336.44-3.43 338.42-4.55 339.62-6.55L339.62-6.55 342.32-4.75Q340.67-2.15 337.97-0.68 335.27 0.8 331.57 0.8L331.57 0.8Q328.17 0.8 325.52-0.8 322.87-2.4 321.37-5.25 319.87-8.1 319.87-11.7L319.87-11.7Q319.87-15.3 321.34-18.15 322.82-21 325.44-22.6 328.07-24.2 331.42-24.2L331.42-24.2ZM323.47-13.8L339.17-13.8Q338.67-17.45 336.72-19.28 334.77-21.1 331.42-21.1L331.42-21.1Q328.17-21.1 326.09-19.03 324.02-16.95 323.47-13.8L323.47-13.8Z" opacity="1" transform="matrix(1,0,0,1,0,0)" fill="#001ec0" class="wordmark-text-0" data-fill-palette-color="primary" id="text-0"></path></svg></g></svg></g></svg></g></svg></g><g><svg viewBox="0 0 48.08886183933392 48.0388214003752" height="48.0388214003752" width="48.08886183933392"><g><svg xmlns="http://www.w3.org/2000/svg" xmlns:xlink="http://www.w3.org/1999/xlink" version="1.1" x="0" y="0" viewBox="0.5 0.5 96.1 96" enable-background="new 0 0 97 97" xml:space="preserve" height="48.0388214003752" width="48.08886183933392" class="icon-icon-0" data-fill-palette-color="accent" id="icon-0"><g fill="#001ec0" data-fill-palette-color="accent"><path fill="#001ec0" d="M75.8 16.2c0 5.5 4.6 9.9 10.4 9.9 5.7 0 10.4-4.4 10.4-9.9V0.5H75.8V16.2z" data-fill-palette-color="accent"></path><path fill="#001ec0" d="M61 26.1c5.7 0 10.4-4.4 10.4-9.9V0.5H50.7v15.7C50.7 21.7 55.3 26.1 61 26.1z" data-fill-palette-color="accent"></path><path fill="#001ec0" d="M36 26.1c5.7 0 10.4-4.4 10.4-9.9V0.5H25.6v15.7C25.6 21.7 30.2 26.1 36 26.1z" data-fill-palette-color="accent"></path><path fill="#001ec0" d="M10.9 26.1c5.7 0 10.4-4.4 10.4-9.9V0.5H0.5v15.7C0.5 21.7 5.1 26.1 10.9 26.1z" data-fill-palette-color="accent"></path><path fill="#001ec0" d="M87.8 29.9v62.5h-43V58.1c0-8-6.5-14.6-14.6-14.6h0c-8 0-14.6 6.5-14.6 14.6v34.3H9.2V29.9c0 0 0 0 0 0-1.5-0.4-2.9-1-4.2-1.8l0 0 0 68.4h87V28.1C90.8 28.9 89.3 29.5 87.8 29.9z" data-fill-palette-color="accent"></path><polygon fill="#001ec0" points="78.1,48 53.7,48 53.7,66.1 48.1,66.1 48.1,70.2 83.7,70.2 83.7,66.1 78.1,66.1  " data-fill-palette-color="accent"></polygon></g></svg></g></svg></g></svg></g></svg></g></svg></g><path d="M184.03 98.056L184.03 33.417 3.664 33.417 3.664 213.783 184.03 213.783 184.03 149.144 181.578 149.144 181.578 211.33 6.117 211.33 6.117 35.87 181.578 35.87 181.578 98.056Z" fill="#001ec0" stroke="transparent" data-fill-palette-color="tertiary"></path></svg></g><defs></defs></svg><rect width="395.52" height="247.2" fill="none" stroke="none" visibility="hidden"></rect></g></svg></g></svg>